<?xml version="1.0" encoding="UTF-8"?>
<svg version="1.1" xmlns="http://www.w3.org/2000/svg" width="408" height="205">
<path d="M0 0 C1.12425385 -0.00281982 2.24850769 -0.00563965 3.40682983 -0.00854492 C5.24286774 -0.00550858 5.24286774 -0.00550858 7.11599731 -0.00241089 C8.41246185 -0.00416321 9.70892639 -0.00591553 11.04467773 -0.00772095 C14.59433476 -0.01227369 18.14396268 -0.01051435 21.6936202 -0.00734186 C25.413932 -0.00480605 29.13424133 -0.00715931 32.85455322 -0.00872803 C39.10381517 -0.0105466 45.35306529 -0.00815205 51.60232544 -0.00338745 C58.81694102 0.00204981 66.03152833 0.00029516 73.24614322 -0.00521386 C79.44842771 -0.00975954 85.6507037 -0.01038826 91.85298932 -0.00777519 C95.55370937 -0.00621981 99.25441616 -0.00599825 102.95513535 -0.00931168 C107.08429372 -0.01275047 111.21340377 -0.00797687 115.34255981 -0.00241089 C116.56253662 -0.00443512 117.78251343 -0.00645935 119.03945923 -0.00854492 C124.58483372 0.00529442 129.8985669 0.1272057 135.3586731 1.12698364 C133.7927324 14.68463838 132.12417294 28.22702243 130.2961731 41.75198364 C130.13407349 42.97747925 129.97197388 44.20297485 129.80496216 45.46560669 C127.55234451 61.90217633 127.55234451 61.90217633 122.8586731 65.50198364 C122.2502356 65.98409302 121.6417981 66.46620239 121.0149231 66.96292114 C118.17401022 68.95960048 116.41947798 69.25583641 112.98924255 69.27415466 C112.0710524 69.28130997 111.15286224 69.28846527 110.20684814 69.2958374 C109.19645477 69.29852631 108.1860614 69.30121521 107.14505005 69.3039856 C106.08310928 69.31055679 105.02116852 69.31712799 103.92704773 69.32389832 C100.40034927 69.34366517 96.87369349 69.35530222 93.34695435 69.36526489 C92.14394369 69.36934042 90.94093304 69.37341595 89.70146751 69.37761497 C83.33272853 69.39849136 76.96401119 69.41278562 70.59524536 69.42214966 C64.01555269 69.43321001 57.43619859 69.46760159 50.85662556 69.50732136 C45.79939647 69.53346652 40.74224824 69.54183972 35.6849575 69.54543114 C33.25968327 69.55030344 30.8344128 69.56193564 28.40920448 69.58046913 C25.01228668 69.60481215 21.6162471 69.60390375 18.2192688 69.59695435 C17.21899658 69.6097644 16.21872437 69.62257446 15.18814087 69.63577271 C9.04451875 69.59001417 5.36163319 68.77348376 0.3586731 65.12698364 C-2.72495178 60.58551147 -3.42302367 55.87022411 -4.16085815 50.54495239 C-4.28298172 49.71964523 -4.40510529 48.89433807 -4.53092957 48.04402161 C-4.91551018 45.4068154 -5.28174167 42.76770847 -5.6413269 40.12698364 C-5.75861145 39.26607117 -5.875896 38.40515869 -5.99673462 37.51815796 C-6.808037 31.49614158 -7.57283795 25.46865171 -8.3288269 19.43948364 C-8.55577469 17.64713226 -8.78298723 15.85481439 -9.01046753 14.06253052 C-9.55712036 9.75105915 -10.10025789 5.43915916 -10.6413269 1.12698364 C-7.03105145 0.29971777 -3.70068005 0.00143182 0 0 Z M33.69168091 11.37039185 C32.06333069 13.51617569 31.99592557 14.56383136 32.0305481 17.23245239 C32.03481812 18.04391724 32.03908813 18.85538208 32.04348755 19.69143677 C32.06499878 20.55704224 32.08651001 21.42264771 32.1086731 22.31448364 C32.12180542 23.20200317 32.13493774 24.08952271 32.14846802 25.00393677 C32.19815199 27.71256165 32.27450712 30.41922983 32.3586731 33.12698364 C32.37945923 33.93216431 32.40024536 34.73734497 32.42166138 35.56692505 C32.20486746 45.05449862 32.20486746 45.05449862 36.3586731 53.12698364 C39.8236731 52.63198364 39.8236731 52.63198364 43.3586731 52.12698364 C44.70761542 45.45489257 44.20294027 38.96273152 43.79934692 32.22219849 C43.67118604 30.00220784 43.57034938 27.78197655 43.47000122 25.56057739 C43.38899778 24.14251175 43.30637111 22.72453769 43.22195435 21.30667114 C43.1527478 20.02518188 43.08354126 18.74369263 43.01223755 17.42337036 C42.26864477 13.67290728 41.4254022 12.35675784 38.3586731 10.12698364 C35.41285297 9.82803654 35.41285297 9.82803654 33.69168091 11.37039185 Z M58.69543457 11.3896637 C56.39421193 14.38044408 56.93304183 18.03740907 56.9602356 21.66213989 C56.95736542 22.49660141 56.95449524 23.33106293 56.95153809 24.19081116 C56.94949769 25.95347778 56.95502589 27.71616705 56.96755981 29.47879028 C56.98363454 32.182997 56.96770052 34.88571369 56.94851685 37.58987427 C56.95049889 39.30146612 56.95434175 41.01305704 56.9602356 42.72463989 C56.9541629 43.53610977 56.94809021 44.34757965 56.9418335 45.18363953 C56.93830832 47.69671862 56.93830832 47.69671862 57.3586731 51.12698364 C60.58240987 53.27614149 61.62570983 53.50985167 65.3586731 53.12698364 C68.3613717 50.12428504 67.68356389 46.75226415 67.6946106 42.72463989 C67.7012674 41.8911351 67.70792419 41.05763031 67.71478271 40.1988678 C67.72491622 38.43445038 67.72959952 36.66999458 67.72927856 34.9055481 C67.7336507 32.20332805 67.76995791 29.50274248 67.80789185 26.80081177 C67.81376005 25.08792674 67.81772942 23.37503394 67.8196106 21.66213989 C67.83398163 20.85269424 67.84835266 20.0432486 67.86315918 19.20927429 C67.85913185 14.73798032 67.85913185 14.73798032 65.5173645 11.09353638 C62.76959429 9.86322397 61.17135263 9.51002208 58.69543457 11.3896637 Z M10.3586731 10.12698364 C7.71900892 12.27782112 6.43937747 13.34722029 6.08132935 16.80667114 C6.19347778 17.86112427 6.30562622 18.91557739 6.4211731 20.00198364 C6.54750122 21.22272583 6.67382935 22.44346802 6.8039856 23.70120239 C6.98691379 25.17670808 7.17202164 26.65194432 7.3586731 28.12698364 C7.46663208 29.03657837 7.57459106 29.9461731 7.68582153 30.8833313 C8.04174571 33.86234761 8.41489392 36.83861064 8.7961731 39.81448364 C8.91807007 40.78305298 9.03996704 41.75162231 9.16555786 42.74954224 C9.28987183 43.66171509 9.41418579 44.57388794 9.54226685 45.51370239 C9.65111206 46.33056519 9.75995728 47.14742798 9.87210083 47.98904419 C10.28932037 50.40886517 10.28932037 50.40886517 12.3586731 53.12698364 C15.3586731 53.54365031 15.3586731 53.54365031 18.3586731 53.12698364 C20.53181518 51.36315963 20.53181518 51.36315963 20.60232544 49.17703247 C20.50907946 42.32066966 19.86136879 35.6124056 18.9836731 28.81448364 C18.85734497 27.75680786 18.73101685 26.69913208 18.6008606 25.60940552 C18.47195435 24.58782349 18.3430481 23.56624146 18.2102356 22.51370239 C18.09502563 21.59806519 17.97981567 20.68242798 17.8611145 19.73904419 C17.32856153 16.97044155 16.60924947 14.65479703 15.3586731 12.12698364 C12.83494408 10.76620329 12.83494408 10.76620329 10.3586731 10.12698364 Z M84.35452271 11.63284302 C81.69826928 14.95226625 81.60679042 17.94007704 81.42507935 22.03323364 C81.37923203 22.79494873 81.3333847 23.55666382 81.28614807 24.34146118 C81.19415755 25.94801903 81.11151551 27.55513602 81.03762817 29.16262817 C80.9214836 31.62041288 80.7682403 34.07389188 80.61062622 36.52932739 C80.52571616 38.0930101 80.442961 39.65681162 80.36257935 41.22073364 C80.31589615 41.95312256 80.26921295 42.68551147 80.22111511 43.44009399 C80.09414356 46.63099922 80.15863892 48.75970301 81.70217896 51.59378052 C83.29854911 53.34946531 83.29854911 53.34946531 85.8586731 53.56448364 C88.8804925 53.03566525 89.56424375 52.58863742 91.3586731 50.12698364 C92.10632844 45.66388072 92.1612924 41.14928913 92.28689575 36.63040161 C92.33718489 34.8764398 92.40046119 33.12282461 92.47341919 31.36965942 C92.58865102 28.51803634 92.66597626 25.66759763 92.7336731 22.81448364 C92.77194214 21.90134399 92.81021118 20.98820435 92.84963989 20.0473938 C92.87979074 17.63668609 92.86980958 15.48349907 92.3586731 13.12698364 C88.47170591 9.79918948 88.47170591 9.79918948 84.35452271 11.63284302 Z M110.33132935 11.05276489 C107.26022958 14.28198068 107.21158979 17.87688412 106.6711731 22.18948364 C106.49074463 23.47894897 106.49074463 23.47894897 106.30667114 24.79446411 C105.97117337 27.23659196 105.66017602 29.68045727 105.3586731 32.12698364 C105.2246106 33.16983521 105.0905481 34.21268677 104.9524231 35.28713989 C104.03204192 43.20255176 104.03204192 43.20255176 104.3586731 51.12698364 C105.0186731 51.78698364 105.6786731 52.44698364 106.3586731 53.12698364 C109.95546376 52.80371811 109.95546376 52.80371811 113.3586731 52.12698364 C115.20328552 45.4703388 116.15978204 38.85373067 116.9836731 32.00198364 C117.1177356 30.94366333 117.2517981 29.88534302 117.3899231 28.79495239 C119.03925347 19.57260304 119.03925347 19.57260304 116.3586731 11.12698364 C113.8524697 9.95742206 112.86024391 9.89794264 110.33132935 11.05276489 Z " fill="#0D5D93" transform="translate(142.64132690429688,63.873016357421875)"/>
<path d="M0 0 C2.875 1 2.875 1 5 2 C5.66 1.34 6.32 0.68 7 0 C10.53314892 -0.46084551 12.3283861 -0.45379318 15.3125 1.5625 C17 4 17 4 17.22265625 7.25 C18.25042108 12.20806148 20.47373306 14.12402434 24.125 17.4375 C25.32333926 18.57761707 26.51996902 19.71953377 27.71484375 20.86328125 C28.28831543 21.40549316 28.86178711 21.94770508 29.45263672 22.50634766 C31.30482736 24.29424641 33.01412547 26.16936952 34.6875 28.125 C35.2340625 28.72699219 35.780625 29.32898438 36.34375 29.94921875 C38 32 38 32 39.65625 34.89453125 C42.04917218 38.47931274 44.0588584 41.20567351 48 43 C56.23564979 44.46095514 64.69129571 44.15246332 73.02075195 43.85571289 C76.15924647 44.00771242 78.21512007 44.57014117 81 46 C83.15482086 48.65761239 84.02142679 50.12150148 83.9375 53.5625 C82.69057629 56.80450164 81.86614053 57.94344078 79 60 C75.29529562 60.70784856 71.59158161 60.69618871 67.828125 60.7421875 C66.01988251 60.78495316 66.01988251 60.78495316 64.17510986 60.82858276 C59.78367824 60.92408554 55.39227616 60.96491862 51 61 C49.70320816 61.01094444 49.70320816 61.01094444 48.38021851 61.02210999 C33.93586141 61.13799276 19.4919592 61.14196564 5.04724121 61.12695312 C0.64923719 61.12434796 -3.74874638 61.12916699 -8.14674759 61.13394356 C-12.464298 61.13760205 -16.78183733 61.1363869 -21.09938812 61.13381577 C-23.12262732 61.13316176 -25.14586762 61.13391952 -27.16910553 61.13629532 C-33.78047555 61.14236394 -40.3893389 61.09661939 -47 61 C-48.07471054 60.98679466 -49.14942108 60.97358932 -50.25669861 60.95998383 C-53.56366753 60.90990509 -56.86865762 60.83005186 -60.17480469 60.74169922 C-61.19797413 60.72811434 -62.22114357 60.71452946 -63.27531815 60.70053291 C-70.36670714 60.46502953 -70.36670714 60.46502953 -73.62188721 58.07473755 C-75.07572412 55.88599796 -75.84095903 54.62417598 -76 52 C-75.20942136 48.75862756 -74.4849955 47.36331628 -71.79882812 45.35107422 C-68.49210487 43.75482452 -66.49135483 43.75144374 -62.84375 43.9453125 C-47.73974454 44.99877657 -47.73974454 44.99877657 -34.74755859 38.69262695 C-32.72226634 36.41409393 -30.8502534 34.08790626 -29.10791016 31.5859375 C-27.6865301 29.55127799 -26.05544781 27.76088245 -24.375 25.9375 C-23.60929687 25.02484375 -23.60929687 25.02484375 -22.828125 24.09375 C-21.31960211 22.36604002 -19.77655864 20.72998051 -18.171875 19.09375 C-17.41898193 18.31269897 -17.41898193 18.31269897 -16.65087891 17.51586914 C-15.65967484 16.49056766 -14.65723276 15.47597069 -13.64208984 14.47436523 C-10.1190523 10.79164151 -9.39107255 8.00572859 -9 3 C-6.73072207 -0.70250609 -4.08534194 -0.40853419 0 0 Z M-6 4 C-5.67 4.66 -5.34 5.32 -5 6 C-4.01 5.01 -3.02 4.02 -2 3 C-4.0745356 2.8509288 -4.0745356 2.8509288 -6 4 Z M0 5 C1 9 1 9 1 9 Z M3 10 C2.608125 10.45375 2.21625 10.9075 1.8125 11.375 C0 13 0 13 -2.8125 13.8125 C-7.10505851 15.41168846 -8.99223077 17.56254945 -12 21 C-12 21.66 -12 22.32 -12 23 C-12.57105469 23.23460937 -13.14210938 23.46921875 -13.73046875 23.7109375 C-16.5294505 25.30072059 -18.1989295 27.1998374 -20.3125 29.625 C-21.09109375 30.51316406 -21.8696875 31.40132812 -22.671875 32.31640625 C-23.44015625 33.20199219 -24.2084375 34.08757813 -25 35 C-26.05960938 36.18916016 -26.05960938 36.18916016 -27.140625 37.40234375 C-30.31977831 40.35047441 -30.31977831 40.35047441 -32 44 C-8.24 44 15.52 44 40 44 C35.41836016 38.58547305 35.41836016 38.58547305 30.5625 33.5625 C28.10406665 31.1418887 25.76917529 28.66164485 23.5 26.0625 C22.92121094 25.4025 22.34242188 24.7425 21.74609375 24.0625 C20.55514899 22.65574646 19.40243177 21.21594692 18.28515625 19.75 C14.39488495 14.80517047 14.39488495 14.80517047 8.5625 13 C7.386875 13 6.21125 13 5 13 C4.505 11.515 4.505 11.515 4 10 C3.67 10 3.34 10 3 10 Z M-46 46 C-46.66 46.66 -47.32 47.32 -48 48 C-46.68 48 -45.36 48 -44 48 C-44 47.34 -44 46.68 -44 46 C-44.66 46 -45.32 46 -46 46 Z M51 46 C51.33 46.66 51.66 47.32 52 48 C52.99 47.67 53.98 47.34 55 47 C53.68 46.67 52.36 46.34 51 46 Z M-49 48 C-50.35618499 49.12534105 -50.35618499 49.12534105 -50.0625 52.0625 C-50.041875 53.031875 -50.02125 54.00125 -50 55 C-49.67 55 -49.34 55 -49 55 C-48.67 52.69 -48.34 50.38 -48 48 C-48.33 48 -48.66 48 -49 48 Z M57 50 C56.67 51.98 56.34 53.96 56 56 C56.66 55.67 57.32 55.34 58 55 C58 53.35 58 51.7 58 50 C57.67 50 57.34 50 57 50 Z M-40 51 C-39 55 -39 55 -39 55 Z M46 51 C46.33 51.99 46.66 52.98 47 54 C47 53.01 47 52.02 47 51 C46.67 51 46.34 51 46 51 Z M47 54 C48 56 48 56 48 56 Z M-49 55 C-49 55.66 -49 56.32 -49 57 C-48.34 56.67 -47.68 56.34 -47 56 C-47.66 55.67 -48.32 55.34 -49 55 Z M48 56 C48.33 56.66 48.66 57.32 49 58 C50.98 58 52.96 58 55 58 C55.33 57.34 55.66 56.68 56 56 C53.36 56 50.72 56 48 56 Z M-47 58 C-45.35 58 -43.7 58 -42 58 C-41.67 57.34 -41.34 56.68 -41 56 C-43.46278801 56 -44.85224119 56.85452863 -47 58 Z " fill="#4681A8" transform="translate(201,2)"/>
<path d="M0 0 C2.97 0 5.94 0 9 0 C10.14425631 4.07375028 11.28344567 8.14887304 12.41796875 12.2253418 C12.80460005 13.61179775 13.19261125 14.99786966 13.58203125 16.38354492 C14.14166005 18.3757949 14.69630551 20.369375 15.25 22.36328125 C15.58515625 23.56251221 15.9203125 24.76174316 16.265625 25.99731445 C17 29 17 29 17 32 C17.66 32 18.32 32 19 32 C18.67 31.01 18.34 30.02 18 29 C18.63576263 26.98996261 19.31234636 24.99288156 20 23 C20.95223295 19.05836803 21.78473752 15.09182053 22.625 11.125 C22.85445313 10.05507812 23.08390625 8.98515625 23.3203125 7.8828125 C23.8832353 5.25583942 24.44303434 2.62824138 25 0 C27.97 0 30.94 0 34 0 C36.66173131 10.28211942 39.0206689 20.56352693 41 31 C44.11497385 23.25607059 46.30884639 15.36939348 48.33666992 7.2878418 C48.53881104 6.48902588 48.74095215 5.69020996 48.94921875 4.8671875 C49.12799561 4.14644043 49.30677246 3.42569336 49.4909668 2.68310547 C50 1 50 1 51 0 C52.51928038 -0.07179964 54.04167482 -0.08392007 55.5625 -0.0625 C56.38878906 -0.05347656 57.21507812 -0.04445312 58.06640625 -0.03515625 C58.70449219 -0.02355469 59.34257812 -0.01195312 60 0 C59.42378906 1.84464844 59.42378906 1.84464844 58.8359375 3.7265625 C58.34805146 5.35910425 57.86112249 6.99193225 57.375 8.625 C57.11976563 9.43324219 56.86453125 10.24148437 56.6015625 11.07421875 C55.14148005 16.06283379 54.66757491 19.09714726 57 24 C56.23945313 24.30679688 55.47890625 24.61359375 54.6953125 24.9296875 C50.76645892 27.94750257 50.17013033 31.47266034 48.875 36.125 C48.40420343 37.77660526 47.92293302 39.42527202 47.4296875 41.0703125 C47.22585449 41.80008301 47.02202148 42.52985352 46.81201172 43.28173828 C46.54404785 43.84876465 46.27608398 44.41579102 46 45 C42.52176885 46.15941038 40.54104422 45.70820884 37 45 C34.35742244 36.05279577 31.99852379 27.11447972 30 18 C27.74775463 24.27838311 26.11589635 30.5252319 24.8125 37.0625 C24.63525391 37.92810547 24.45800781 38.79371094 24.27539062 39.68554688 C23.84532887 41.7893625 23.42194832 43.89454212 23 46 C20.03 45.67 17.06 45.34 14 45 C8 31.57142857 8 31.57142857 8 26 C6.02 25.34 4.04 24.68 2 24 C2.54269531 23.34257812 3.08539063 22.68515625 3.64453125 22.0078125 C5.54040127 17.80083869 4.21399312 14.9730182 2.6875 10.875 C0 3.2455243 0 3.2455243 0 0 Z " fill="#2A6D9C" transform="translate(320,155)"/>
<path d="M0 0 C1.36558447 -0.02667999 2.73187717 -0.02557923 4.09753418 -0.00291443 C4.84417831 -0.01006973 5.59082245 -0.01722504 6.36009216 -0.02459717 C8.82983462 -0.04151571 11.29776975 -0.02206544 13.76745605 -0.00071716 C15.48234203 -0.00154558 17.19722792 -0.00400394 18.91210938 -0.00802612 C22.5068755 -0.01088626 26.1010193 0.00383749 29.69567871 0.03126526 C34.30633521 0.06534893 38.91587867 0.05933219 43.52658844 0.04060268 C47.06794531 0.03004015 50.60904263 0.0389636 54.15037537 0.0539875 C55.85045094 0.0591753 57.55055356 0.05868027 59.25062561 0.05244255 C61.62597038 0.04699912 63.9997154 0.06733468 66.37487793 0.09474182 C67.07938583 0.08821594 67.78389374 0.08169006 68.50975037 0.07496643 C71.59499218 0.13557989 73.32306565 0.26660711 75.68457031 2.33340454 C76.92897737 5.04883723 77.04111559 6.90381423 76.92370605 9.87818909 C76.88310059 11.21623596 76.88310059 11.21623596 76.8416748 12.58131409 C76.80687012 13.25678284 76.77206543 13.93225159 76.73620605 14.62818909 C66.20966367 14.65132538 55.68312731 14.66911077 45.15656471 14.68000126 C40.26904021 14.68522726 35.38153307 14.6923198 30.49401855 14.70362854 C25.78024499 14.71446743 21.06648815 14.72046806 16.35270309 14.72306633 C14.55131136 14.72491876 12.74992057 14.72853592 10.94853592 14.73391914 C8.43193815 14.74114285 5.91541013 14.74217946 3.39880371 14.74171448 C2.64858444 14.74530975 1.89836517 14.74890503 1.12541199 14.75260925 C-4.03568962 14.74224125 -4.03568962 14.74224125 -6.26379395 13.62818909 C-6.88932882 1.32600319 -6.88932882 1.32600319 0 0 Z " fill="#03568F" transform="translate(169.2637939453125,46.37181091308594)"/>
<path d="M0 0 C0.82048828 0.00193359 1.64097656 0.00386719 2.48632812 0.00585938 C8.15527684 0.21850151 11.15603152 1.54711191 15.26977539 5.46264648 C19.04548754 9.77030977 18.06053248 16.04203845 18.18725586 21.46630859 C18.22878598 22.85377004 18.2900365 24.24079372 18.37182617 25.62646484 C19.02052104 36.81076684 19.02052104 36.81076684 15.6940918 41.6628418 C10.50523869 46.31953134 5.81713046 47.84310498 -1.08789062 47.68945312 C-2.04888672 47.62693359 -3.00988281 47.56441406 -4 47.5 C-4.99580078 47.47228516 -5.99160156 47.44457031 -7.01757812 47.41601562 C-14.20934627 47.16565373 -14.20934627 47.16565373 -15.4375 45.9375 C-15.5576585 44.546377 -15.61692497 43.14985332 -15.6484375 41.75390625 C-15.67679688 40.90892578 -15.70515625 40.06394531 -15.734375 39.19335938 C-15.78633903 37.40189933 -15.83064595 35.61020035 -15.8671875 33.81835938 C-15.898125 32.97208984 -15.9290625 32.12582031 -15.9609375 31.25390625 C-15.98075684 30.47474854 -16.00057617 29.69559082 -16.02099609 28.89282227 C-16.28545678 26.53458592 -16.28545678 26.53458592 -19.4375 24.9375 C-17.5625 21.0625 -17.5625 21.0625 -16.4375 19.9375 C-16.28129445 18.52422053 -16.18693827 17.1039541 -16.12109375 15.68359375 C-16.07919922 14.82958984 -16.03730469 13.97558594 -15.99414062 13.09570312 C-15.95482422 12.19787109 -15.91550781 11.30003906 -15.875 10.375 C-15.83181641 9.47330078 -15.78863281 8.57160156 -15.74414062 7.64257812 C-15.63771858 5.40771515 -15.53570012 3.17273692 -15.4375 0.9375 C-10.22155304 -0.15303024 -5.29235584 -0.18620486 0 0 Z M-7.4375 7.9375 C-8.88573511 10.83397022 -8.44269634 13.24914917 -8.31640625 16.4765625 C-8.26806641 17.77851563 -8.21972656 19.08046875 -8.16992188 20.421875 C-8.11339606 21.80208804 -8.05675392 23.18229632 -8 24.5625 C-7.94677707 25.95050219 -7.89403668 27.33852297 -7.84179688 28.7265625 C-7.71178837 32.13042141 -7.57681117 35.53401117 -7.4375 38.9375 C-5.35481407 39.01876087 -3.27121342 39.07680839 -1.1875 39.125 C-0.02734375 39.15980469 1.1328125 39.19460937 2.328125 39.23046875 C5.85946179 38.91060129 7.23506814 38.59782514 9.5625 35.9375 C10.17841171 33.28799454 10.17841171 33.28799454 10.09375 30.28125 C10.09890625 29.17652344 10.1040625 28.07179687 10.109375 26.93359375 C10.09390625 25.77988281 10.0784375 24.62617188 10.0625 23.4375 C10.07796875 22.28378906 10.0934375 21.13007813 10.109375 19.94140625 C10.10421875 18.83667969 10.0990625 17.73195312 10.09375 16.59375 C10.08923828 15.58119141 10.08472656 14.56863281 10.08007812 13.52539062 C9.78843694 10.82519508 9.78843694 10.82519508 7.73144531 9.10229492 C4.68226969 7.46478739 2.24589309 7.64699821 -1.1875 7.75 C-2.35796875 7.77707031 -3.5284375 7.80414063 -4.734375 7.83203125 C-5.62640625 7.86683594 -6.5184375 7.90164062 -7.4375 7.9375 Z " fill="#0D578A" transform="translate(251.4375,154.0625)"/>
<path d="M0 0 C3.5456856 1.88157716 6.25144297 4.09099421 9 7 C9.495 7.495 9.495 7.495 10 8 C10.2868146 11.26422335 10.44887605 14.52864491 10.62109375 17.80078125 C10.96944383 20.74200509 11.47745979 22.50352719 13 25 C12.01 25.33 11.02 25.66 10 26 C10.11601563 26.845625 10.23203125 27.69125 10.3515625 28.5625 C10.74346507 33.48927522 11.03885079 37.38321383 8.30078125 41.64453125 C3.43599371 46.10727023 -1.00342014 47.59666948 -7.5625 48 C-13.97097581 47.610427 -17.99823039 46.22894849 -22.46484375 41.5703125 C-24.80859902 37.64616246 -24.95364576 34.04223929 -24.90234375 29.5390625 C-24.71866492 26.82839639 -24.71866492 26.82839639 -27 25 C-27 24.01 -27 23.02 -27 22 C-26.34 21.67 -25.68 21.34 -25 21 C-24.92585975 18.98041969 -24.91661883 16.95833284 -24.9375 14.9375 C-24.58532489 9.8617063 -23.94223785 6.89476027 -20.375 3.1875 C-14.20131922 -1.44769164 -7.36547533 -1.51127464 0 0 Z M-16 11 C-16.59984371 13.65059204 -16.59984371 13.65059204 -16.49609375 16.65625 C-16.49673828 17.76097656 -16.49738281 18.86570313 -16.49804688 20.00390625 C-16.47806641 21.15761719 -16.45808594 22.31132812 -16.4375 23.5 C-16.44458984 24.65371094 -16.45167969 25.80742187 -16.45898438 26.99609375 C-16.74019401 32.74224076 -16.74019401 32.74224076 -14.64868164 37.82861328 C-12.14604964 39.60673091 -10.02728161 39.39725942 -7 39.375 C-5.948125 39.38273437 -4.89625 39.39046875 -3.8125 39.3984375 C-1.05219379 39.2269271 -1.05219379 39.2269271 0.64868164 37.82861328 C3.5394087 33.91686158 2.46620718 28.17144172 2.4375 23.5 C2.45748047 22.34628906 2.47746094 21.19257813 2.49804688 20.00390625 C2.49740234 18.89917969 2.49675781 17.79445312 2.49609375 16.65625 C2.49794678 15.64369141 2.4997998 14.63113281 2.50170898 13.58789062 C2.23166821 10.87748285 2.23166821 10.87748285 0.12133789 9.17138672 C-2.42661218 7.76442798 -4.10105413 7.59848525 -7 7.625 C-7.845625 7.61726562 -8.69125 7.60953125 -9.5625 7.6015625 C-12.57809067 8.09449559 -13.81286526 8.87113201 -16 11 Z " fill="#1D6799" transform="translate(77,154)"/>
<path d="M0 0 C4.41798605 2.46497076 7.39000108 5.17000325 9 10 C8.99454975 11.47974337 8.94976543 12.95963659 8.875 14.4375 C8.82323412 17.6159249 8.85399354 18.75057229 10.5 21.5625 C10.995 22.036875 11.49 22.51125 12 23 C11.26330078 23.56460938 11.26330078 23.56460938 10.51171875 24.140625 C8.41919787 26.71437161 8.76676101 28.47342485 8.8125 31.75 C8.52915948 36.52052916 7.9213262 38.91344453 4.375 42.1875 C0.5855844 44.94404834 -2.23807581 46 -7 46 C-7.85851562 46.020625 -8.71703125 46.04125 -9.6015625 46.0625 C-15.82066762 45.92543983 -20.04136692 44.70811764 -24.546875 40.3125 C-26.8963704 36.57351807 -26.87805999 32.90690544 -26.8671875 28.57421875 C-26.72051093 25.83299973 -26.72051093 25.83299973 -29 24 C-29 23.01 -29 22.02 -29 21 C-28.34 20.67 -27.68 20.34 -27 20 C-26.82119617 18.08885087 -26.73196417 16.16898013 -26.6875 14.25 C-26.30542537 8.39383798 -26.30542537 8.39383798 -23.625 4.9375 C-22.75875 4.298125 -21.8925 3.65875 -21 3 C-20.46375 2.4225 -19.9275 1.845 -19.375 1.25 C-14.63741951 -3.05689135 -5.79894479 -1.09595841 0 0 Z M-18 10 C-18.61591171 12.64950546 -18.61591171 12.64950546 -18.53125 15.65625 C-18.53640625 16.76097656 -18.5415625 17.86570313 -18.546875 19.00390625 C-18.53140625 20.15761719 -18.5159375 21.31132812 -18.5 22.5 C-18.51546875 23.65371094 -18.5309375 24.80742187 -18.546875 25.99609375 C-18.54171875 27.10082031 -18.5365625 28.20554688 -18.53125 29.34375 C-18.52673828 30.35630859 -18.52222656 31.36886719 -18.51757812 32.41210938 C-18.22906617 35.11929443 -18.22906617 35.11929443 -16.1328125 36.82641602 C-13.45166614 38.30172171 -11.55041825 38.43330987 -8.5 38.4375 C-7.09234375 38.46650391 -7.09234375 38.46650391 -5.65625 38.49609375 C-2.21209031 37.85284628 -1.19012578 36.69670691 1 34 C1.60932307 31.47024589 1.60932307 31.47024589 1.53125 28.71875 C1.53640625 27.71199219 1.5415625 26.70523438 1.546875 25.66796875 C1.53140625 24.62253906 1.5159375 23.57710937 1.5 22.5 C1.51546875 21.45457031 1.5309375 20.40914062 1.546875 19.33203125 C1.54171875 18.32527344 1.5365625 17.31851563 1.53125 16.28125 C1.52673828 15.36408203 1.52222656 14.44691406 1.51757812 13.50195312 C0.84485004 10.25001097 -0.43507162 9.04554212 -3 7 C-5.67198363 6.40759616 -5.67198363 6.40759616 -8.5 6.5625 C-9.4384375 6.56378906 -10.376875 6.56507813 -11.34375 6.56640625 C-14.48941171 7.07988926 -15.72862288 7.77822016 -18 10 Z " fill="#186193" transform="translate(177,155)"/>
<path d="M0 0 C-0.1875 3.3125 -0.1875 3.3125 -1 7 C-3.58550115 9.14227238 -5.69424952 9.92193605 -8.9375 10.75 C-12.56972851 12.23254225 -14.0496178 14.00602876 -16.41015625 17.05078125 C-18.44593998 19.54674214 -20.70258195 21.74259503 -23 24 C-23.9801594 24.97817293 -24.95929424 25.95737337 -25.9375 26.9375 C-29 30 -29 30 -32.0625 33.0625 C-32.55451904 33.55492187 -33.04653809 34.04734375 -33.5534668 34.5546875 C-34.9351168 35.93517156 -36.32097294 37.31144211 -37.70703125 38.6875 C-42.73333438 43.64039161 -42.73333438 43.64039161 -45.9375 49.8125 C-46.288125 50.534375 -46.63875 51.25625 -47 52 C-49.45665475 52.65176555 -51.46231736 53 -54 53 C-54 53.66 -54 54.32 -54 55 C-57.43742918 55.05802698 -60.87473253 55.09360486 -64.3125 55.125 C-65.28896484 55.14175781 -66.26542969 55.15851562 -67.27148438 55.17578125 C-68.20927734 55.18222656 -69.14707031 55.18867187 -70.11328125 55.1953125 C-70.97735596 55.20578613 -71.84143066 55.21625977 -72.73168945 55.22705078 C-75 55 -75 55 -78 53 C-78.99 52.67 -79.98 52.34 -81 52 C-82.17202773 49.47563258 -82.0358646 48.14704484 -81.375 45.4375 C-79.64034212 42.36242466 -78.16695424 41.5287792 -75 40 C-72.06835938 39.77392578 -72.06835938 39.77392578 -68.84375 39.9453125 C-53.73992001 40.9987966 -53.73992001 40.9987966 -40.74780273 34.69287109 C-38.72107857 32.41276677 -36.84722154 30.08516538 -35.10351562 27.58154297 C-33.70115428 25.57169855 -32.09570646 23.80155609 -30.4375 22 C-29.92703125 21.39671875 -29.4165625 20.7934375 -28.890625 20.171875 C-27.28851109 18.33143009 -25.65331856 16.54487817 -23.984375 14.765625 C-23.44240479 14.18683594 -22.90043457 13.60804687 -22.34204102 13.01171875 C-21.26024158 11.85984259 -20.17492683 10.71125521 -19.08569336 9.56640625 C-16.56624949 6.87726312 -14.38058053 4.44726774 -13 1 C-12.505 1.99 -12.505 1.99 -12 3 C-11.5875 2.505 -11.175 2.01 -10.75 1.5 C-7.81349033 -1.01700829 -3.74116227 0 0 0 Z M-52 42 C-52.66 42.66 -53.32 43.32 -54 44 C-52.68 44 -51.36 44 -50 44 C-50 43.34 -50 42.68 -50 42 C-50.66 42 -51.32 42 -52 42 Z M-55 44 C-56.35618499 45.12534105 -56.35618499 45.12534105 -56.0625 48.0625 C-56.041875 49.031875 -56.02125 50.00125 -56 51 C-55.67 51 -55.34 51 -55 51 C-54.67 48.69 -54.34 46.38 -54 44 C-54.33 44 -54.66 44 -55 44 Z " fill="#1C6393" transform="translate(207,6)"/>
<path d="M0 0 C2.31 0.33 4.62 0.66 7 1 C7.16890918 3.22899787 7.33503687 5.45820662 7.5 7.6875 C7.5928125 8.92886719 7.685625 10.17023438 7.78125 11.44921875 C7.95779937 14.31499329 8.04388528 17.13099957 8 20 C8.8353125 18.6696875 8.8353125 18.6696875 9.6875 17.3125 C11.78956706 14.1483359 14.31210082 11.68789918 17 9 C17.942933 7.58694372 18.88012273 6.17004342 19.8125 4.75 C21.50596897 2.39771412 22.39581284 1.20540178 25.16015625 0.265625 C27.375 0 27.375 0 31 0 C31 3.5462238 30.41573003 4.06132638 28.19140625 6.6875 C27.60939453 7.38617188 27.02738281 8.08484375 26.42773438 8.8046875 C25.81220703 9.52914062 25.19667969 10.25359375 24.5625 11 C23.35157681 12.43422304 22.14437372 13.87159752 20.94140625 15.3125 C20.40201416 15.94800781 19.86262207 16.58351562 19.30688477 17.23828125 C17.80160111 19.07646395 17.80160111 19.07646395 17 22 C17.97853928 23.87314187 17.97853928 23.87314187 19.52734375 25.72265625 C20.34428711 26.77743164 20.34428711 26.77743164 21.17773438 27.85351562 C21.75845703 28.58248047 22.33917969 29.31144531 22.9375 30.0625 C24.07572586 31.50849196 25.21005108 32.95756567 26.33984375 34.41015625 C26.84894287 35.05090088 27.35804199 35.69164551 27.88256836 36.35180664 C29 38 29 38 29 40 C29.66 40 30.32 40 31 40 C31.99 41.98 32.98 43.96 34 46 C30.8170608 47.06097973 29.0328564 46.98517759 25.85009766 45.98925781 C22.10204092 43.98515041 20.01774134 40.32125731 17.6875 36.875 C16.65520829 35.38941415 15.61771853 33.90742215 14.57421875 32.4296875 C14.12651123 31.77210449 13.67880371 31.11452148 13.2175293 30.43701172 C12.81574463 29.96279785 12.41395996 29.48858398 12 29 C11.34 29 10.68 29 10 29 C8.15433468 32.98393611 7.63977171 36.44376683 7.375 40.8125 C7.30023438 41.97394531 7.22546875 43.13539063 7.1484375 44.33203125 C7.07496094 45.65267578 7.07496094 45.65267578 7 47 C5.00045254 47.04254356 2.99958364 47.04080783 1 47 C-0.53300114 45.46699886 -0.16196836 44.02047021 -0.2109375 41.88671875 C-0.23929687 41.05076172 -0.26765625 40.21480469 -0.296875 39.35351562 C-0.34860898 37.58809354 -0.39298196 35.8224391 -0.4296875 34.05664062 C-0.56746698 27.92422747 -0.56746698 27.92422747 -4 23 C-3.5155542 22.60127686 -3.0311084 22.20255371 -2.53198242 21.79174805 C-0.59395355 19.5251036 -0.5822835 18.28370177 -0.48828125 15.33203125 C-0.45283203 14.43935547 -0.41738281 13.54667969 -0.38085938 12.62695312 C-0.35830078 11.69818359 -0.33574219 10.76941406 -0.3125 9.8125 C-0.27833984 8.87212891 -0.24417969 7.93175781 -0.20898438 6.96289062 C-0.12651782 4.64204607 -0.05736597 2.32157852 0 0 Z " fill="#186092" transform="translate(104,154)"/>
<path d="M0 0 C0 2.31 0 4.62 0 7 C-2.40435006 8.20217503 -3.68381369 8.03897118 -6.3515625 7.87890625 C-7.20234375 7.83056641 -8.053125 7.78222656 -8.9296875 7.73242188 C-9.81914062 7.67634766 -10.70859375 7.62027344 -11.625 7.5625 C-12.5221875 7.51029297 -13.419375 7.45808594 -14.34375 7.40429688 C-16.56279383 7.2744592 -18.7814404 7.1378646 -21 7 C-21 10.96 -21 14.92 -21 19 C-15.72 19 -10.44 19 -5 19 C-5 21.31 -5 23.62 -5 26 C-10.28 26 -15.56 26 -21 26 C-21 29.96 -21 33.92 -21 38 C-14.07 38 -7.14 38 0 38 C0 40.31 0 42.62 0 45 C-2.97880524 45.19697084 -5.95764386 45.38277673 -8.9375 45.5625 C-10.18370117 45.64661133 -10.18370117 45.64661133 -11.45507812 45.73242188 C-17.11484061 46.06275821 -22.38081467 45.76547933 -28 45 C-28.85405237 39.34190306 -29.01302904 34.03984849 -28.7421875 28.3203125 C-28.86980469 27.17175781 -28.86980469 27.17175781 -29 26 C-29.99 25.34 -30.98 24.68 -32 24 C-31.690625 23.401875 -31.38125 22.80375 -31.0625 22.1875 C-28.87747246 17.68891389 -28.91409782 13.76283402 -29 8.875 C-29.04576155 6.24371069 -29.04711723 3.63267512 -29 1 C-23.89899671 -4.10100329 -6.91573911 -0.57046071 0 0 Z " fill="#0B588D" transform="translate(312,155)"/>
<path d="M0 0 C2.875 1 2.875 1 5 2 C5.66 1.34 6.32 0.68 7 0 C10.53314892 -0.46084551 12.3283861 -0.45379318 15.3125 1.5625 C17 4 17 4 17.22265625 7.25 C18.25042108 12.20806148 20.47373306 14.12402434 24.125 17.4375 C25.32333926 18.57761707 26.51996902 19.71953377 27.71484375 20.86328125 C28.28831543 21.40549316 28.86178711 21.94770508 29.45263672 22.50634766 C31.87979908 24.84926014 34.05220965 27.37741085 36.234375 29.9453125 C38.58276153 32.67816939 41.00943383 35.33816405 43.4375 38 C44.30246094 38.94875 45.16742188 39.8975 46.05859375 40.875 C46.69925781 41.57625 47.33992188 42.2775 48 43 C46.68 43.33 45.36 43.66 44 44 C43.67 45.32 43.34 46.64 43 48 C42.67 47.01 42.34 46.02 42 45 C16.92 45 -8.16 45 -34 45 C-32 43 -32 43 -29.0640564 42.75949097 C-27.17875717 42.7661528 -27.17875717 42.7661528 -25.25537109 42.77294922 C-24.56257553 42.77265717 -23.86977997 42.77236511 -23.1559906 42.77206421 C-20.86167966 42.77345969 -18.56769184 42.78903081 -16.2734375 42.8046875 C-14.68446022 42.80841686 -13.09548064 42.8112642 -11.50650024 42.81326294 C-7.32085846 42.82090547 -3.1353551 42.84055919 1.05023193 42.8626709 C5.31992724 42.88311604 9.58964487 42.8922618 13.859375 42.90234375 C22.23964691 42.92380457 30.61980625 42.95794789 39 43 C38.10724365 42.11304443 37.2144873 41.22608887 36.29467773 40.31225586 C35.11174927 39.13401923 33.92889168 37.95571143 32.74609375 36.77734375 C32.15904663 36.19448608 31.57199951 35.61162842 30.96716309 35.0111084 C27.31711595 31.37131061 23.82990239 27.65245333 20.5 23.71484375 C18.93280051 21.92317559 17.2746955 20.27774427 15.5625 18.625 C13 16 13 16 13 14 C12.05125 14.020625 11.1025 14.04125 10.125 14.0625 C7 14 7 14 5 13 C5.33 10.03 5.66 7.06 6 4 C5.13375 4.185625 4.2675 4.37125 3.375 4.5625 C-0.05152628 5.00667933 -2.64212371 4.71954492 -6 4 C-5.67 4.99 -5.34 5.98 -5 7 C-6.65 7.66 -8.3 8.32 -10 9 C-9.40425532 3.63829787 -9.40425532 3.63829787 -7.8125 1.125 C-5.10794969 -0.5536864 -3.12810048 -0.31281005 0 0 Z " fill="#649ABF" transform="translate(201,2)"/>
<path d="M0 0 C1.08752563 -0.00676758 1.08752563 -0.00676758 2.19702148 -0.01367188 C5.96482356 -0.00319727 9.46256348 0.22016274 13.125 1.125 C13.125 3.435 13.125 5.745 13.125 8.125 C8.835 8.125 4.545 8.125 0.125 8.125 C0.310625 9.89875 0.49625 11.6725 0.6875 13.5 C1.25 18.875 1.25 18.875 0.125 21.125 C1.445 21.785 2.765 22.445 4.125 23.125 C3.64417969 23.58390625 3.16335937 24.0428125 2.66796875 24.515625 C0.33098469 28.46779045 0.55421637 32.35974371 0.4375 36.875 C0.40333984 37.76316406 0.36917969 38.65132812 0.33398438 39.56640625 C0.25171286 41.75247803 0.18249828 43.93815951 0.125 46.125 C-2.185 46.125 -4.495 46.125 -6.875 46.125 C-6.88958252 45.55990723 -6.90416504 44.99481445 -6.91918945 44.41259766 C-6.99356058 41.85769981 -7.09025242 39.30412502 -7.1875 36.75 C-7.22133789 35.41582031 -7.22133789 35.41582031 -7.25585938 34.0546875 C-7.29130859 33.20390625 -7.32675781 32.353125 -7.36328125 31.4765625 C-7.38946533 30.69104004 -7.41564941 29.90551758 -7.44262695 29.09619141 C-7.72389597 26.72459844 -7.72389597 26.72459844 -10.875 25.125 C-9 21.25 -9 21.25 -7.875 20.125 C-7.64072222 18.10905418 -7.46163876 16.086526 -7.3125 14.0625 C-7.168125 12.103125 -7.02375 10.14375 -6.875 8.125 C-12.815 8.62 -12.815 8.62 -18.875 9.125 C-20.875 5.125 -20.875 5.125 -20.5 2.875 C-20.29375 2.2975 -20.0875 1.72 -19.875 1.125 C-13.24750143 0.3234019 -6.66954701 0.01725069 0 0 Z " fill="#306F9B" transform="translate(26.875,153.875)"/>
<path d="M0 0 C2.64 0 5.28 0 8 0 C8.01401855 0.87736816 8.01401855 0.87736816 8.02832031 1.77246094 C8.08213279 4.4324858 8.16575449 7.09077222 8.25 9.75 C8.26417969 10.67039063 8.27835937 11.59078125 8.29296875 12.5390625 C8.41704868 17.99818125 8.41704868 17.99818125 11.046875 22.640625 C12.01367188 23.31351563 12.01367188 23.31351563 13 24 C11.02 24.99 11.02 24.99 9 26 C8.67 32.27 8.34 38.54 8 45 C4.71023192 46.09658936 3.28696233 45.79953138 0 45 C-0.01981934 44.44538086 -0.03963867 43.89076172 -0.06005859 43.31933594 C-0.15557651 40.79576307 -0.26514567 38.27298776 -0.375 35.75 C-0.4059375 34.87730469 -0.436875 34.00460938 -0.46875 33.10546875 C-0.50742187 32.26113281 -0.54609375 31.41679687 -0.5859375 30.546875 C-0.6173584 29.77182617 -0.6487793 28.99677734 -0.68115234 28.19824219 C-1.03026506 25.79134258 -1.80551104 24.10397705 -3 22 C-2.34 21.34 -1.68 20.68 -1 20 C-0.63047951 17.87139338 -0.63047951 17.87139338 -0.5859375 15.4296875 C-0.54726563 14.53378906 -0.50859375 13.63789063 -0.46875 12.71484375 C-0.4378125 11.77769531 -0.406875 10.84054688 -0.375 9.875 C-0.33632813 8.93011719 -0.29765625 7.98523438 -0.2578125 7.01171875 C-0.16338654 4.67467625 -0.07781606 2.33764499 0 0 Z " fill="#3C7BA6" transform="translate(392,155)"/>
<path d="M0 0 C1.24546405 2.49092811 0.7767578 3.41080733 0 6 C-1.32 6 -2.64 6 -4 6 C-4 5.34 -4 4.68 -4 4 C-6.60943058 5.0645852 -6.60943058 5.0645852 -9 7 C-9.46117005 10.61249874 -8.91606502 13.52345818 -8 17 C-11.43742918 17.05802698 -14.87473253 17.09360486 -18.3125 17.125 C-19.28896484 17.14175781 -20.26542969 17.15851562 -21.27148438 17.17578125 C-22.67817383 17.18544922 -22.67817383 17.18544922 -24.11328125 17.1953125 C-24.97735596 17.20578613 -25.84143066 17.21625977 -26.73168945 17.22705078 C-29 17 -29 17 -32 15 C-32.99 14.67 -33.98 14.34 -35 14 C-36.17202773 11.47563258 -36.0358646 10.14704484 -35.375 7.4375 C-33.63666062 4.35589837 -32.1700236 3.54556457 -29 2 C-25.87792969 1.58349609 -25.87792969 1.58349609 -22.421875 1.5234375 C-21.17921875 1.4925 -19.9365625 1.4615625 -18.65625 1.4296875 C-17.3671875 1.41164062 -16.078125 1.39359375 -14.75 1.375 C-12.18221076 1.32425318 -9.61449151 1.26977871 -7.046875 1.2109375 C-5.34289551 1.18459229 -5.34289551 1.18459229 -3.60449219 1.15771484 C-1.0722333 1.29325776 -1.0722333 1.29325776 0 0 Z " fill="#1B669A" transform="translate(161,44)"/>
<path d="M0 0 C3.93736123 -0.08696177 7.87447628 -0.14037835 11.8125 -0.1875 C13.49182617 -0.22520508 13.49182617 -0.22520508 15.20507812 -0.26367188 C16.27822266 -0.27333984 17.35136719 -0.28300781 18.45703125 -0.29296875 C19.9416687 -0.31653442 19.9416687 -0.31653442 21.45629883 -0.34057617 C24 0 24 0 25.7956543 1.3347168 C27.59890344 3.82812089 27.81393274 5.96090135 28 9 C27.03394425 11.74954328 26.61984486 12.69007757 24 14 C22.1136088 14.084915 20.22421485 14.107193 18.3359375 14.09765625 C17.21445312 14.09443359 16.09296875 14.09121094 14.9375 14.08789062 C13.761875 14.07951172 12.58625 14.07113281 11.375 14.0625 C10.19164062 14.05798828 9.00828125 14.05347656 7.7890625 14.04882812 C4.85932493 14.03701467 1.92968728 14.02054258 -1 14 C-0.66226562 13.44828125 -0.32453125 12.8965625 0.0234375 12.328125 C1.21101261 9.49694595 1.02275703 7.77295344 0.625 4.75 C0.51414062 3.85796875 0.40328125 2.9659375 0.2890625 2.046875 C0.19367188 1.37140625 0.09828125 0.6959375 0 0 Z " fill="#0F5D94" transform="translate(257,47)"/>
<path d="M0 0 C4.875 2.75 4.875 2.75 6 5 C6.35066287 9.20795439 6.44150155 13.41844149 6.51489258 17.63867188 C6.54647978 19.03952373 6.5941838 20.44011025 6.65844727 21.83984375 C7.18640133 33.50721506 7.18640133 33.50721506 4.17919922 37.29101562 C2.17446476 38.79578213 0.28319392 39.97551056 -2 41 C-2.66 40.67 -3.32 40.34 -4 40 C-4 39.34 -4 38.68 -4 38 C-3.34 38 -2.68 38 -2 38 C-2 37.34 -2 36.68 -2 36 C-7.94 36 -13.88 36 -20 36 C-20 26.1 -20 16.2 -20 6 C-19.67 6 -19.34 6 -19 6 C-19 15.57 -19 25.14 -19 35 C-7.20894625 35.15931209 -7.20894625 35.15931209 -3 32 C-2.48987435 29.38803709 -2.48987435 29.38803709 -2.48828125 26.3359375 C-2.45283203 25.21445313 -2.41738281 24.09296875 -2.38085938 22.9375 C-2.35830078 21.761875 -2.33574219 20.58625 -2.3125 19.375 C-2.27833984 18.19164062 -2.24417969 17.00828125 -2.20898438 15.7890625 C-2.12629425 12.8594694 -2.05721286 9.9301836 -2 7 C-3.32 6.34 -4.64 5.68 -6 5 C-6 4.67 -6 4.34 -6 4 C-4.02 3.34 -2.04 2.68 0 2 C0 1.34 0 0.68 0 0 Z " fill="#3073A1" transform="translate(263,158)"/>
<path d="M0 0 C3.26265612 2.17510408 3.73936409 3.12949953 5.1875 6.625 C5.53167969 7.44226563 5.87585938 8.25953125 6.23046875 9.1015625 C6.48441406 9.72804687 6.73835938 10.35453125 7 11 C7.66 10.67 8.32 10.34 9 10 C9.16292254 12.39858182 9.28117547 14.78603893 9.375 17.1875 C9.42527344 17.86103516 9.47554687 18.53457031 9.52734375 19.22851562 C9.6122892 22.13081845 9.56215323 24.33810991 7.63769531 26.60400391 C5.9765625 27.98828125 5.9765625 27.98828125 3 30 C2.97421875 28.73542969 2.9484375 27.47085938 2.921875 26.16796875 C2.86559734 24.50777782 2.80824993 22.8476229 2.75 21.1875 C2.73582031 20.35412109 2.72164062 19.52074219 2.70703125 18.66210938 C2.60612496 13.90492267 2.60612496 13.90492267 0.26171875 9.9453125 C-2.3172042 8.8674207 -4.14627359 8.63158946 -6.9375 8.6875 C-7.77152344 8.69136719 -8.60554688 8.69523438 -9.46484375 8.69921875 C-12.49621934 8.94772183 -12.49621934 8.94772183 -17 11 C-17 19.25 -17 27.5 -17 36 C-17.33 36 -17.66 36 -18 36 C-18 28.41 -18 20.82 -18 13 C-21.31460705 14.70892499 -21.31460705 14.70892499 -21.6875 18.125 C-21.790625 19.07375 -21.89375 20.0225 -22 21 C-22.33 21 -22.66 21 -23 21 C-24.16683075 9.31548656 -24.16683075 9.31548656 -21.74609375 4.51171875 C-15.9096718 -1.57681646 -7.8378356 -1.05062328 0 0 Z " fill="#1A6191" transform="translate(77,154)"/>
<path d="M0 0 C0 2.31 0 4.62 0 7 C-2.40435006 8.20217503 -3.68381369 8.03897118 -6.3515625 7.87890625 C-7.20234375 7.83056641 -8.053125 7.78222656 -8.9296875 7.73242188 C-9.81914062 7.67634766 -10.70859375 7.62027344 -11.625 7.5625 C-12.5221875 7.51029297 -13.419375 7.45808594 -14.34375 7.40429688 C-16.56279383 7.2744592 -18.7814404 7.1378646 -21 7 C-21 10.96 -21 14.92 -21 19 C-15.72 19 -10.44 19 -5 19 C-5 21.31 -5 23.62 -5 26 C-5.33 26 -5.66 26 -6 26 C-6 24.02 -6 22.04 -6 20 C-7.09699219 20.01160156 -8.19398438 20.02320313 -9.32421875 20.03515625 C-10.77864412 20.04453964 -12.23307135 20.05363925 -13.6875 20.0625 C-14.40873047 20.07087891 -15.12996094 20.07925781 -15.87304688 20.08789062 C-19.71555382 20.10543632 -23.26639526 19.93524221 -27 19 C-27 20.98 -27 22.96 -27 25 C-28.65 24.67 -30.3 24.34 -32 24 C-31.690625 23.401875 -31.38125 22.80375 -31.0625 22.1875 C-28.87747246 17.68891389 -28.91409782 13.76283402 -29 8.875 C-29.04576155 6.24371069 -29.04711723 3.63267512 -29 1 C-23.89899671 -4.10100329 -6.91573911 -0.57046071 0 0 Z " fill="#286C9C" transform="translate(312,155)"/>
<path d="M0 0 C-0.33 1.98 -0.66 3.96 -1 6 C-0.67 6 -0.34 6 0 6 C0 14.25 0 22.5 0 31 C4.10558718 33.05279359 5.80206685 33.2216942 10.25 33.125 C11.86648437 33.09792969 11.86648437 33.09792969 13.515625 33.0703125 C14.33546875 33.04710937 15.1553125 33.02390625 16 33 C16 33.66 16 34.32 16 35 C14.39318359 35.07347656 14.39318359 35.07347656 12.75390625 35.1484375 C11.35674361 35.22345294 9.9596095 35.2990013 8.5625 35.375 C7.85544922 35.4059375 7.14839844 35.436875 6.41992188 35.46875 C4.60760812 35.57280629 2.80182012 35.77919892 1 36 C0.67 36.66 0.34 37.32 0 38 C0.66 38 1.32 38 2 38 C1.67 38.99 1.34 39.98 1 41 C-0.31322788 40.02180976 -1.62556152 39.0424189 -2.9375 38.0625 C-3.66839844 37.51722656 -4.39929688 36.97195312 -5.15234375 36.41015625 C-7 35 -7 35 -8 34 C-8.28474016 30.93113383 -8.44871799 27.86224703 -8.62109375 24.78515625 C-8.7322894 21.86415567 -8.7322894 21.86415567 -11 20 C-11 19.01 -11 18.02 -11 17 C-10.34 16.67 -9.68 16.34 -9 16 C-8.68134549 12.99099098 -8.62009862 10.00458951 -8.5390625 6.98046875 C-7.56605244 1.60071024 -5.35696115 0 0 0 Z " fill="#1C679A" transform="translate(159,159)"/>
<path d="M0 0 C3.46679688 0.04882812 3.46679688 0.04882812 6.93359375 0.09765625 C5.61359375 4.38765625 4.29359375 8.67765625 2.93359375 13.09765625 C2.27359375 13.09765625 1.61359375 13.09765625 0.93359375 13.09765625 C0.33626556 15.86029914 -0.06640625 18.25798394 -0.06640625 21.09765625 C-0.06640625 22.08765625 -0.06640625 23.07765625 -0.06640625 24.09765625 C-0.72640625 24.75765625 -1.38640625 25.41765625 -2.06640625 26.09765625 C-2.76389208 27.41512949 -3.43600582 28.74679818 -4.06640625 30.09765625 C-4.72640625 30.09765625 -5.38640625 30.09765625 -6.06640625 30.09765625 C-6.39640625 31.08765625 -6.72640625 32.07765625 -7.06640625 33.09765625 C-9.44837592 29.52470175 -9.54801024 27.21588076 -9.06640625 23.09765625 C-8.25163054 19.25708352 -7.20685623 15.49671454 -6.12890625 11.72265625 C-5.85111328 10.71332031 -5.57332031 9.70398438 -5.28710938 8.6640625 C-2.90582027 0.1373261 -2.90582027 0.1373261 0 0 Z " fill="#04568F" transform="translate(373.06640625,154.90234375)"/>
<path d="M0 0 C0.733396 -0.00451172 1.46679199 -0.00902344 2.22241211 -0.01367188 C5.639383 -0.0042164 8.79748963 0.05087126 12.0625 1.125 C12.0625 3.105 12.0625 5.085 12.0625 7.125 C10.7425 7.125 9.4225 7.125 8.0625 7.125 C7.7325 6.465 7.4025 5.805 7.0625 5.125 C6.0725 5.455 5.0825 5.785 4.0625 6.125 C3.0725 6.08375 2.0825 6.0425 1.0625 6 C-1.88839972 5.84905038 -1.88839972 5.84905038 -3.6875 7.375 C-5.0047814 9.21919396 -6.01110134 11.05841837 -6.9375 13.125 C-6.9375 11.475 -6.9375 9.825 -6.9375 8.125 C-12.8775 8.62 -12.8775 8.62 -18.9375 9.125 C-20.9375 5.125 -20.9375 5.125 -20.5625 2.875 C-20.35625 2.2975 -20.15 1.72 -19.9375 1.125 C-13.28900587 0.32086248 -6.69064057 0.01720143 0 0 Z " fill="#186093" transform="translate(26.9375,153.875)"/>
<path d="M0 0 C2.97 0 5.94 0 9 0 C8.979375 1.134375 8.95875 2.26875 8.9375 3.4375 C8.9293241 8.00782755 9.41308664 12.47238262 10 17 C10.66 17 11.32 17 12 17 C11.67 18.98 11.34 20.96 11 23 C9.35 22.67 7.7 22.34 6 22 C5.67 19.69 5.34 17.38 5 15 C1.88214887 15.64644661 1.88214887 15.64644661 1 18 C0.01 17.67 -0.98 17.34 -2 17 C-2.22018299 10.94496767 -1.47039847 5.88159387 0 0 Z " fill="#266C9C" transform="translate(345,155)"/>
<path d="M0 0 C3.11518499 1.34341311 4.80752547 2.66925482 6.796875 5.40625 C7.28027344 6.06753906 7.76367188 6.72882813 8.26171875 7.41015625 C8.99841797 8.44462891 8.99841797 8.44462891 9.75 9.5 C10.25660156 10.18964844 10.76320312 10.87929687 11.28515625 11.58984375 C15 16.72654144 15 16.72654144 15 19 C15.66 19 16.32 19 17 19 C17.99 20.98 18.98 22.96 20 25 C16.81486615 26.06171128 15.04177691 25.97862847 11.85888672 24.98046875 C8.09385455 22.99460466 5.94625166 19.42159586 3.5625 16 C3.02173828 15.26265625 2.48097656 14.5253125 1.92382812 13.765625 C-2 8.32881637 -2 8.32881637 -2 6 C-1.34 6 -0.68 6 0 6 C0 4.02 0 2.04 0 0 Z " fill="#05548C" transform="translate(118,175)"/>
<path d="M0 0 C0.33 0 0.66 0 1 0 C1 3.96 1 7.92 1 12 C7.93 12 14.86 12 22 12 C22 14.31 22 16.62 22 19 C19.02119476 19.19697084 16.04235614 19.38277673 13.0625 19.5625 C12.23169922 19.61857422 11.40089844 19.67464844 10.54492188 19.73242188 C4.88515939 20.06275821 -0.38081467 19.76547933 -6 19 C-6 16.69 -6 14.38 -6 12 C-5.67 12 -5.34 12 -5 12 C-5 13.65 -5 15.3 -5 17 C-3.02 16.34 -1.04 15.68 1 15 C0.67 14.34 0.34 13.68 0 13 C-0.07092842 10.7927077 -0.08415025 8.58332548 -0.0625 6.375 C-0.05347656 5.18648437 -0.04445313 3.99796875 -0.03515625 2.7734375 C-0.02355469 1.85820312 -0.01195312 0.94296875 0 0 Z " fill="#4C83AA" transform="translate(290,181)"/>
<path d="M0 0 C0.28875 0.639375 0.5775 1.27875 0.875 1.9375 C1.82823451 4.15206079 1.82823451 4.15206079 4 5 C4.33 4.01 4.66 3.02 5 2 C5.66 2 6.32 2 7 2 C6.36810218 9.02350796 5.05780811 15.70455725 3.4375 22.5625 C3.20353516 23.57119141 2.96957031 24.57988281 2.72851562 25.61914062 C2.15691285 28.08053217 1.5806646 30.54073347 1 33 C-0.45945288 32.91291331 -1.91765868 32.80473093 -3.375 32.6875 C-4.59316406 32.60048828 -4.59316406 32.60048828 -5.8359375 32.51171875 C-8 32 -8 32 -10 29 C-9.505 27.515 -9.505 27.515 -9 26 C-9 26.66 -9 27.32 -9 28 C-8.01 28.33 -7.02 28.66 -6 29 C-6 29.66 -6 30.32 -6 31 C-4.35 31 -2.7 31 -1 31 C-1.44344896 27.37850014 -1.91291859 24.2220576 -3.25 20.8125 C-4.36962971 15.12104895 -2.57510037 10.4792591 -1 5 C-0.64882192 3.33700185 -0.30916339 1.67131891 0 0 Z " fill="#2A6C97" transform="translate(342,168)"/>
<path d="M0 0 C2.62901288 1.52206009 4.84365964 2.84365964 7 5 C7.34375 7.8984375 7.34375 7.8984375 7.5 11.375 C7.68395949 15.44970261 7.85123089 18.48225702 10 22 C9.01 22.33 8.02 22.66 7 23 C7.03480469 23.90363281 7.06960937 24.80726563 7.10546875 25.73828125 C7.13253906 26.91777344 7.15960938 28.09726563 7.1875 29.3125 C7.22230469 30.48425781 7.25710937 31.65601563 7.29296875 32.86328125 C7 36 7 36 5.61328125 37.91796875 C4 39 4 39 2 39 C1.67 37.35 1.34 35.7 1 34 C0.01 33.67 -0.98 33.34 -2 33 C-1.67 25.08 -1.34 17.16 -1 9 C-0.67 9 -0.34 9 0 9 C0.33 14.28 0.66 19.56 1 25 C5.19540152 21.57771537 5.19540152 21.57771537 5.49609375 18.0546875 C5.47675781 17.00539062 5.45742187 15.95609375 5.4375 14.875 C5.43621094 13.82054687 5.43492188 12.76609375 5.43359375 11.6796875 C5.29050781 10.79539063 5.14742188 9.91109375 5 9 C4.01 8.34 3.02 7.68 2 7 C0.8125 3.375 0.8125 3.375 0 0 Z " fill="#4482AB" transform="translate(80,157)"/>
<path d="M0 0 C0.66 0 1.32 0 2 0 C2 5.61 2 11.22 2 17 C8.6 17 15.2 17 22 17 C22 17.66 22 18.32 22 19 C21.34 19 20.68 19 20 19 C20 19.66 20 20.32 20 21 C20.66 21.33 21.32 21.66 22 22 C18.72918529 22.02902429 15.4584037 22.04680684 12.1875 22.0625 C11.25873047 22.07087891 10.32996094 22.07925781 9.37304688 22.08789062 C8.48037109 22.09111328 7.58769531 22.09433594 6.66796875 22.09765625 C5.43469849 22.10551147 5.43469849 22.10551147 4.17651367 22.11352539 C2 22 2 22 -1 21 C-1.80331767 17.45254915 -2.16196507 14.1361745 -2.1875 10.5 C-2.20167969 9.5821875 -2.21585938 8.664375 -2.23046875 7.71875 C-1.98342521 4.80447367 -1.21293885 2.64641203 0 0 Z " fill="#04558E" transform="translate(239,177)"/>
<path d="M0 0 C2.875 1 2.875 1 5 2 C5.66 1.34 6.32 0.68 7 0 C10.59411792 -0.46879799 12.35164037 -0.44361448 15.375 1.625 C17.4131192 4.6037896 17.32152515 6.46322336 17 10 C12.125 7.25 12.125 7.25 11 5 C9.59903754 8.07242053 9.59903754 8.07242053 11.4375 11.1875 C11.953125 12.115625 12.46875 13.04375 13 14 C7.25 14.125 7.25 14.125 5 13 C5.33 10.03 5.66 7.06 6 4 C5.13375 4.185625 4.2675 4.37125 3.375 4.5625 C-0.05152628 5.00667933 -2.64212371 4.71954492 -6 4 C-5.67 4.99 -5.34 5.98 -5 7 C-6.65 7.66 -8.3 8.32 -10 9 C-9.40425532 3.63829787 -9.40425532 3.63829787 -7.8125 1.125 C-5.10794969 -0.5536864 -3.12810048 -0.31281005 0 0 Z " fill="#78A8C5" transform="translate(201,2)"/>
<path d="M0 0 C1.125 1.625 1.125 1.625 2 4 C1.34623583 7.20344443 0.67599062 9.29433174 -1.6015625 11.671875 C-4.94368566 13.52256209 -8.040817 13.32422792 -11.75 13.1875 C-12.44738281 13.17396484 -13.14476563 13.16042969 -13.86328125 13.14648438 C-15.57585541 13.1112945 -17.28802941 13.05749155 -19 13 C-19.66 11.35 -20.32 9.7 -21 8 C-20.34 8 -19.68 8 -19 8 C-19 7.34 -19 6.68 -19 6 C-17.62714844 5.92652344 -17.62714844 5.92652344 -16.2265625 5.8515625 C-15.03804688 5.77679688 -13.84953125 5.70203125 -12.625 5.625 C-11.44164063 5.55539063 -10.25828125 5.48578125 -9.0390625 5.4140625 C-5.89437681 5.29782654 -5.89437681 5.29782654 -4 3 C-2.68 3 -1.36 3 0 3 C0 2.01 0 1.02 0 0 Z " fill="#115C90" transform="translate(81,188)"/>
<path d="M0 0 C0.66 0 1.32 0 2 0 C2.433125 1.093125 2.86625 2.18625 3.3125 3.3125 C4.50873916 6.13790298 5.70733935 7.92568798 8 10 C8 10.66 8 11.32 8 12 C44.96 12.33 81.92 12.66 120 13 C120 13.33 120 13.66 120 14 C105.77874169 14.0935596 91.5575313 14.1637698 77.3360281 14.20724869 C70.73229226 14.22811711 64.12876328 14.25642196 57.52514648 14.30175781 C51.15146414 14.34524092 44.77798069 14.36914271 38.40416145 14.37950897 C35.97329643 14.38689581 33.5424422 14.40132054 31.11166191 14.42292023 C27.70498056 14.45198589 24.29911952 14.45595453 20.89233398 14.45410156 C19.38721252 14.47567322 19.38721252 14.47567322 17.85168457 14.49768066 C11.69901769 14.46150429 8.00023579 13.67174042 3 10 C0.58194996 6.25592252 0 4.49512007 0 0 Z " fill="#36688C" transform="translate(140,119)"/>
<path d="M0 0 C0.33 0 0.66 0 1 0 C1.33 5.61 1.66 11.22 2 17 C2.99 16.34 3.98 15.68 5 15 C5 17.31 5 19.62 5 22 C4.34 22 3.68 22 3 22 C1.88830504 26.43802635 1.885146 30.77067427 1.9375 35.3125 C1.958125 37.849375 1.97875 40.38625 2 43 C9.59 43.33 17.18 43.66 25 44 C21.2834991 45.85825045 20.15556112 46.25016734 16.26953125 46.23046875 C14.94211914 46.22756836 14.94211914 46.22756836 13.58789062 46.22460938 C12.67201172 46.21236328 11.75613281 46.20011719 10.8125 46.1875 C9.88501953 46.18685547 8.95753906 46.18621094 8.00195312 46.18554688 C1.14037187 46.14037187 1.14037187 46.14037187 0 45 C-0.1201585 43.608877 -0.17942497 42.21235332 -0.2109375 40.81640625 C-0.23929688 39.97142578 -0.26765625 39.12644531 -0.296875 38.25585938 C-0.34883903 36.46439933 -0.39314595 34.67270035 -0.4296875 32.88085938 C-0.460625 32.03458984 -0.4915625 31.18832031 -0.5234375 30.31640625 C-0.54325684 29.53724854 -0.56307617 28.75809082 -0.58349609 27.95532227 C-0.84795678 25.59708592 -0.84795678 25.59708592 -4 24 C-2.125 20.125 -2.125 20.125 -1 19 C-0.84379445 17.58672053 -0.74943827 16.1664541 -0.68359375 14.74609375 C-0.64169922 13.89208984 -0.59980469 13.03808594 -0.55664062 12.15820312 C-0.51732422 11.26037109 -0.47800781 10.36253906 -0.4375 9.4375 C-0.39431641 8.53580078 -0.35113281 7.63410156 -0.30664062 6.70507812 C-0.20021858 4.47021515 -0.09820012 2.23523692 0 0 Z " fill="#025791" transform="translate(236,155)"/>
<path d="M0 0 C2.70608417 1.35304209 2.96183047 2.80966544 4.125 5.5625 C4.47820312 6.38878906 4.83140625 7.21507812 5.1953125 8.06640625 C5.46085937 8.70449219 5.72640625 9.34257812 6 10 C6.66 9.67 7.32 9.34 8 9 C8.16292254 11.39858182 8.28117547 13.78603893 8.375 16.1875 C8.45041016 17.19780273 8.45041016 17.19780273 8.52734375 18.22851562 C8.6122892 21.13081845 8.56215323 23.33810991 6.63769531 25.60400391 C4.9765625 26.98828125 4.9765625 26.98828125 2 29 C1.96261719 27.78183594 1.92523438 26.56367188 1.88671875 25.30859375 C1.82101883 23.6848671 1.75457291 22.06117051 1.6875 20.4375 C1.66494141 19.63763672 1.64238281 18.83777344 1.61914062 18.01367188 C1.3770784 12.6222859 0.24328622 8.88537889 -2 4 C-1.1875 1.5625 -1.1875 1.5625 0 0 Z " fill="#035791" transform="translate(78,155)"/>
<path d="M0 0 C0.99 0 1.98 0 3 0 C3 1.32 3 2.64 3 4 C2.34 4 1.68 4 1 4 C1.2784375 4.928125 1.2784375 4.928125 1.5625 5.875 C2 8 2 8 1 10 C0.38125 10.268125 -0.2375 10.53625 -0.875 10.8125 C-3.89275671 12.49889345 -4.62618108 13.79442253 -6 17 C-6.53593734 20.658803 -6.81250117 24.30821268 -7 28 C-8.32 28 -9.64 28 -11 28 C-11.98248524 23.9472484 -12.08159574 20.16138263 -12 16 C-11.34 16.33 -10.68 16.66 -10 17 C-9.67 16.01 -9.34 15.02 -9 14 C-8.34 14 -7.68 14 -7 14 C-7.12375 13.319375 -7.2475 12.63875 -7.375 11.9375 C-6.87501121 8.02092114 -5.05316498 6.36874091 -2.41015625 3.55078125 C-0.90550609 2.03673407 -0.90550609 2.03673407 0 0 Z " fill="#1A6499" transform="translate(117,171)"/>
<path d="M0 0 C2.19050021 0.09017996 4.378466 0.24666208 6.5625 0.4375 C7.76003906 0.53933594 8.95757812 0.64117187 10.19140625 0.74609375 C11.11824219 0.82988281 12.04507812 0.91367188 13 1 C10.91655831 19.03809253 8.53635985 37.02071577 6 55 C4 52 4 52 4 50 C3.34 49.67 2.68 49.34 2 49 C3.485 48.505 3.485 48.505 5 48 C5.04898437 46.94941406 5.09796875 45.89882812 5.1484375 44.81640625 C5.49193295 38.14766473 5.84987171 31.7596627 7.52734375 25.2734375 C8.36101381 21.26355339 8.51307397 17.18948174 8.78125 13.109375 C9.04372693 9.37845295 9.49155689 5.7043712 10 2 C8.9275 2.20625 7.855 2.4125 6.75 2.625 C3.12380904 2.9876191 1.91708924 2.98362069 -1 1 C-0.67 0.67 -0.34 0.34 0 0 Z " fill="#6996B5" transform="translate(265,64)"/>
<path d="M0 0 C1.32 0 2.64 0 4 0 C4.33 1.65 4.66 3.3 5 5 C5.66 5 6.32 5 7 5 C8.99785435 9.1205746 9.17835515 12.45194365 9 17 C6.8125 17.375 6.8125 17.375 4 17 C0.73685235 14.2444531 -0.77588423 12.6695366 -1.34765625 8.41015625 C-1.37289074 5.8975216 -1.32842317 3.49132434 -1 1 C-0.67 0.67 -0.34 0.34 0 0 Z " fill="#19679F" transform="translate(332,182)"/>
<path d="M0 0 C0.33 0 0.66 0 1 0 C1.01981934 0.74685059 1.03963867 1.49370117 1.06005859 2.26318359 C1.15508211 5.63415605 1.26485259 9.00448929 1.375 12.375 C1.4059375 13.550625 1.436875 14.72625 1.46875 15.9375 C1.52675781 17.61972656 1.52675781 17.61972656 1.5859375 19.3359375 C1.6173584 20.37282715 1.6487793 21.4097168 1.68115234 22.47802734 C1.75954472 25.16809835 1.75954472 25.16809835 4 27 C6.66242821 27.46290221 6.66242821 27.46290221 9.625 27.625 C10.62789062 27.69976562 11.63078125 27.77453125 12.6640625 27.8515625 C13.43492188 27.90054688 14.20578125 27.94953125 15 28 C15 28.33 15 28.66 15 29 C10.71 29 6.42 29 2 29 C2 29.66 2 30.32 2 31 C1.34 31 0.68 31 0 31 C0.33 31.99 0.66 32.98 1 34 C-2.3994607 32.54308827 -4.66372389 30.8814072 -7 28 C-7.390625 24.984375 -7.390625 24.984375 -7.25 21.75 C-7.21390625 20.67234375 -7.1778125 19.5946875 -7.140625 18.484375 C-7.09421875 17.66453125 -7.0478125 16.8446875 -7 16 C-6.67 16 -6.34 16 -6 16 C-5.67 18.31 -5.34 20.62 -5 23 C-4.67 22.01 -4.34 21.02 -4 20 C-3.34 20 -2.68 20 -2 20 C-1.67 21.32 -1.34 22.64 -1 24 C-0.67 16.08 -0.34 8.16 0 0 Z " fill="#568EB4" transform="translate(60,165)"/>
<path d="M0 0 C4.875 2.75 4.875 2.75 6 5 C6.08573394 7.25120742 6.10712188 9.50499303 6.09765625 11.7578125 C6.0962413 12.42086395 6.09482635 13.08391541 6.09336853 13.76705933 C6.08776754 15.88641863 6.075215 18.00567259 6.0625 20.125 C6.05748512 21.56119639 6.05292219 22.99739444 6.04882812 24.43359375 C6.03779782 27.95576345 6.02053259 31.47787145 6 35 C5.34 35 4.68 35 4 35 C4 24.77 4 14.54 4 4 C0.95865509 5.66924071 0.95865509 5.66924071 0 8 C-0.15306901 9.81171098 -0.24946661 11.6283794 -0.31640625 13.4453125 C-0.35830078 14.52167969 -0.40019531 15.59804687 -0.44335938 16.70703125 C-0.50233398 18.39892578 -0.50233398 18.39892578 -0.5625 20.125 C-0.60568359 21.26066406 -0.64886719 22.39632812 -0.69335938 23.56640625 C-0.7996604 26.37747768 -0.90169405 29.18863945 -1 32 C-1.33 32 -1.66 32 -2 32 C-2 23.75 -2 15.5 -2 7 C-3.32 6.34 -4.64 5.68 -6 5 C-6 4.67 -6 4.34 -6 4 C-4.02 3.34 -2.04 2.68 0 2 C0 1.34 0 0.68 0 0 Z " fill="#6D9CBC" transform="translate(263,158)"/>
<path d="M0 0 C3.46679688 0.04882812 3.46679688 0.04882812 6.93359375 0.09765625 C5.61359375 4.38765625 4.29359375 8.67765625 2.93359375 13.09765625 C-0.03640625 12.60265625 -0.03640625 12.60265625 -3.06640625 12.09765625 C-3.39640625 14.40765625 -3.72640625 16.71765625 -4.06640625 19.09765625 C-5.05640625 19.09765625 -6.04640625 19.09765625 -7.06640625 19.09765625 C-6.41741162 14.93535416 -5.58445542 10.87262366 -4.56640625 6.78515625 C-4.30859375 5.73714844 -4.05078125 4.68914062 -3.78515625 3.609375 C-2.79003364 0.13185414 -2.79003364 0.13185414 0 0 Z " fill="#3676A1" transform="translate(373.06640625,154.90234375)"/>
<path d="M0 0 C0.66 0 1.32 0 2 0 C1.814375 0.763125 1.62875 1.52625 1.4375 2.3125 C0.77180827 5.08967375 0.77180827 5.08967375 2 8 C-3.8685408 9.14819277 -9.0885256 8.77313045 -15 8 C-14.67 7.01 -14.34 6.02 -14 5 C-14.66 5 -15.32 5 -16 5 C-15.67 4.01 -15.34 3.02 -15 2 C-10.05 2 -5.1 2 0 2 C0 1.34 0 0.68 0 0 Z " fill="#135E91" transform="translate(175,192)"/>
<path d="M0 0 C1.98 0 3.96 0 6 0 C6.13481759 2.93902349 6.23399416 5.87189559 6.3125 8.8125 C6.35439453 9.64587891 6.39628906 10.47925781 6.43945312 11.33789062 C6.48608132 13.65997489 6.48020408 15.72634555 6 18 C2.44632768 21 2.44632768 21 0 21 C0 14.07 0 7.14 0 0 Z " fill="#16517B" transform="translate(393,155)"/>
<path d="M0 0 C0.33 0 0.66 0 1 0 C1 8.25 1 16.5 1 25 C5.10558718 27.05279359 6.80206685 27.2216942 11.25 27.125 C12.86648437 27.09792969 12.86648437 27.09792969 14.515625 27.0703125 C15.33546875 27.04710937 16.1553125 27.02390625 17 27 C17 27.66 17 28.32 17 29 C15.39318359 29.07347656 15.39318359 29.07347656 13.75390625 29.1484375 C12.35674361 29.22345294 10.9596095 29.2990013 9.5625 29.375 C8.85544922 29.4059375 8.14839844 29.436875 7.41992188 29.46875 C5.60760812 29.57280629 3.80182012 29.77919892 2 30 C1.67 30.66 1.34 31.32 1 32 C1.66 32 2.32 32 3 32 C2.67 32.99 2.34 33.98 2 35 C-0.64 33.02 -3.28 31.04 -6 29 C-5.01 28.67 -4.02 28.34 -3 28 C-2.26676204 25.98491642 -2.26676204 25.98491642 -2 24 C-1.34 24 -0.68 24 0 24 C0 16.08 0 8.16 0 0 Z " fill="#4C85AB" transform="translate(158,165)"/>
<path d="M0 0 C4.41611151 6.62416726 3.10380152 15.33022073 3 23 C1.35 23 -0.3 23 -2 23 C-2.0582253 19.91674642 -2.09367134 16.83363495 -2.125 13.75 C-2.14175781 12.87730469 -2.15851562 12.00460938 -2.17578125 11.10546875 C-2.18222656 10.26113281 -2.18867188 9.41679687 -2.1953125 8.546875 C-2.20578613 7.77182617 -2.21625977 6.99677734 -2.22705078 6.19824219 C-1.97326556 3.74116461 -1.22444152 2.12688458 0 0 Z " fill="#04568D" transform="translate(23,177)"/>
<path d="M0 0 C3.39417765 3.12621626 5.6062718 5.56541027 7 10 C7.66 10 8.32 10 9 10 C9.99 11.98 10.98 13.96 12 16 C7.8880184 17.37066053 5.96851748 16.67095473 2 15 C0.22019728 12.75455122 -0.7822975 10.6302374 -2 8 C-1.01 7.34 -0.02 6.68 1 6 C0.67 4.02 0.34 2.04 0 0 Z " fill="#447FA2" transform="translate(126,184)"/>
<path d="M0 0 C5.61 0 11.22 0 17 0 C17 1.98 17 3.96 17 6 C11.72 5.67 6.44 5.34 1 5 C0.67 3.35 0.34 1.7 0 0 Z " fill="#08568A" transform="translate(294,194)"/>
<path d="M0 0 C2.56333554 2.47716317 2.98951938 3.89280467 3.34057617 7.48339844 C3.34010423 8.85881543 3.32333368 10.23429315 3.29296875 11.609375 C3.28872391 12.33618469 3.28447906 13.06299438 3.28010559 13.81182861 C3.2633613 16.12493504 3.22571885 18.43715855 3.1875 20.75 C3.17244758 22.32160197 3.15876015 23.89321764 3.14648438 25.46484375 C3.11347195 29.31023415 3.06172056 33.15496756 3 37 C2.67 37 2.34 37 2 37 C1.93268677 35.56950317 1.93268677 35.56950317 1.86401367 34.11010742 C1.69369929 30.57022929 1.50480765 27.0315445 1.31030273 23.49291992 C1.22873429 21.9616061 1.15219865 20.43001553 1.08081055 18.89819336 C0.97728174 16.69552868 0.85565524 14.49449557 0.73046875 12.29296875 C0.70220505 11.60849167 0.67394135 10.92401459 0.64482117 10.21879578 C0.47354983 7.46383342 0.25447939 5.40361006 -1.2331543 3.04418945 C-3.37535743 1.57601549 -3.37535743 1.57601549 -8 2 C-8.33 6.29 -8.66 10.58 -9 15 C-9.33 15 -9.66 15 -10 15 C-10 10.38 -10 5.76 -10 1 C-6.89079391 -0.55460305 -3.36916972 -0.72720693 0 0 Z " fill="#5D90B1" transform="translate(184,73)"/>
<path d="M0 0 C1.65 0 3.3 0 5 0 C7.29612756 9.41002278 7.29612756 9.41002278 7 14 C7.66 14 8.32 14 9 14 C8.67 15.98 8.34 17.96 8 20 C6.68 19.67 5.36 19.34 4 19 C3.87625 17.989375 3.7525 16.97875 3.625 15.9375 C3.02478162 12.15612419 2.08625113 8.66609757 1 5 C0.64628502 3.33753959 0.30404678 1.67225729 0 0 Z " fill="#04568F" transform="translate(348,158)"/>
<path d="M0 0 C0.33 0.66 0.66 1.32 1 2 C1.99 2 2.98 2 4 2 C5.65497356 5.30994713 5.10084335 8.99123 5.0625 12.625 C5.05798828 13.42679688 5.05347656 14.22859375 5.04882812 15.0546875 C5.03703168 17.03649006 5.01909605 19.01825433 5 21 C4.67 21 4.34 21 4 21 C4 18.69 4 16.38 4 14 C3.34 14 2.68 14 2 14 C1.67 16.31 1.34 18.62 1 21 C0.34 20.67 -0.32 20.34 -1 20 C-0.67 13.4 -0.34 6.8 0 0 Z " fill="#06548B" transform="translate(105,155)"/>
<path d="M0 0 C0 6.27 0 12.54 0 19 C-1.32 19 -2.64 19 -4 19 C-4 13.06 -4 7.12 -4 1 C-2 0 -2 0 0 0 Z " fill="#07558C" transform="translate(399,180)"/>
<path d="M0 0 C0.33 0 0.66 0 1 0 C1.0093457 0.58491211 1.01869141 1.16982422 1.02832031 1.77246094 C1.08213279 4.4324858 1.16575449 7.09077222 1.25 9.75 C1.26417969 10.67039063 1.27835937 11.59078125 1.29296875 12.5390625 C1.41704868 17.99818125 1.41704868 17.99818125 4.046875 22.640625 C5.01367188 23.31351563 5.01367188 23.31351563 6 24 C4.02 24.99 4.02 24.99 2 26 C1.67 32.27 1.34 38.54 1 45 C-2.13349732 46.04449911 -2.98968256 45.93423645 -6 45 C-3.03 44.505 -3.03 44.505 0 44 C-0.05329468 42.95996826 -0.05329468 42.95996826 -0.10766602 41.89892578 C-0.80339915 27.84720723 -1.17812068 14.02869855 0 0 Z " fill="#91B8D3" transform="translate(399,155)"/>
<path d="M0 0 C1.65 0 3.3 0 5 0 C4.8125 3.3125 4.8125 3.3125 4 7 C0.71852832 9.71893368 -2.98877111 10.69199058 -7 12 C-7.99 12.66 -8.98 13.32 -10 14 C-9.67 12.02 -9.34 10.04 -9 8 C-8.01 8 -7.02 8 -6 8 C-6 7.34 -6 6.68 -6 6 C-4.35 5.67 -2.7 5.34 -1 5 C-0.67 3.35 -0.34 1.7 0 0 Z " fill="#36749F" transform="translate(202,6)"/>
<path d="M0 0 C0.99 0 1.98 0 3 0 C3 10.56 3 21.12 3 32 C2.34 32 1.68 32 1 32 C0.67 21.44 0.34 10.88 0 0 Z " fill="#11527F" transform="translate(240,162)"/>
<path d="M0 0 C0.33 0 0.66 0 1 0 C0.99214478 0.94637329 0.99214478 0.94637329 0.98413086 1.91186523 C0.96342174 4.75373347 0.95035934 7.59558588 0.9375 10.4375 C0.92912109 11.43072266 0.92074219 12.42394531 0.91210938 13.44726562 C0.90888672 14.39150391 0.90566406 15.33574219 0.90234375 16.30859375 C0.89710693 17.18314209 0.89187012 18.05769043 0.88647461 18.95874023 C0.77215191 20.99440206 0.77215191 20.99440206 2 22 C2.33 19.69 2.66 17.38 3 15 C3.66 15 4.32 15 5 15 C5.36521739 21.45217391 5.36521739 21.45217391 3.75 23.875 C1.83656302 25.10506663 0.23288365 25.61502006 -2 26 C-2.66 25.01 -3.32 24.02 -4 23 C-3.5155542 22.60127686 -3.0311084 22.20255371 -2.53198242 21.79174805 C-0.59395355 19.5251036 -0.5822835 18.28370177 -0.48828125 15.33203125 C-0.45283203 14.43935547 -0.41738281 13.54667969 -0.38085938 12.62695312 C-0.35830078 11.69818359 -0.33574219 10.76941406 -0.3125 9.8125 C-0.27833984 8.87212891 -0.24417969 7.93175781 -0.20898438 6.96289062 C-0.12651782 4.64204607 -0.05736597 2.32157852 0 0 Z " fill="#3979A6" transform="translate(104,154)"/>
<path d="M0 0 C3 0 3 0 7 1 C6.67 9.91 6.34 18.82 6 28 C5.67 28 5.34 28 5 28 C5 20.41 5 12.82 5 5 C1.68539295 6.70892499 1.68539295 6.70892499 1.3125 10.125 C1.209375 11.07375 1.10625 12.0225 1 13 C0.67 13 0.34 13 0 13 C0 8.71 0 4.42 0 0 Z " fill="#0E5281" transform="translate(54,162)"/>
<path d="M0 0 C0.33 0 0.66 0 1 0 C1.33 5.61 1.66 11.22 2 17 C9.59 17.33 17.18 17.66 25 18 C21.2834991 19.85825045 20.15556112 20.25016734 16.26953125 20.23046875 C14.94211914 20.22756836 14.94211914 20.22756836 13.58789062 20.22460938 C12.67201172 20.21236328 11.75613281 20.20011719 10.8125 20.1875 C9.88501953 20.18685547 8.95753906 20.18621094 8.00195312 20.18554688 C1.14037187 20.14037187 1.14037187 20.14037187 0 19 C-0.08651611 17.58429877 -0.10704904 16.164405 -0.09765625 14.74609375 C-0.09443359 13.89208984 -0.09121094 13.03808594 -0.08789062 12.15820312 C-0.07951172 11.26037109 -0.07113281 10.36253906 -0.0625 9.4375 C-0.05798828 8.53580078 -0.05347656 7.63410156 -0.04882812 6.70507812 C-0.03700225 4.46998686 -0.0205222 2.23502563 0 0 Z " fill="#5689AD" transform="translate(236,181)"/>
<path d="M0 0 C1.32 0 2.64 0 4 0 C4.33 2.97 4.66 5.94 5 9 C4.01 9 3.02 9 2 9 C2 9.66 2 10.32 2 11 C2.66 11.33 3.32 11.66 4 12 C3.01 12.66 2.02 13.32 1 14 C-1.18841354 10.71737969 -1.24854665 9.68209102 -1.1875 5.875 C-1.18105469 4.98554688 -1.17460937 4.09609375 -1.16796875 3.1796875 C-1 1 -1 1 0 0 Z " fill="#105D91" transform="translate(332,182)"/>
<path d="M0 0 C0.33 0 0.66 0 1 0 C0.95875 1.0725 0.9175 2.145 0.875 3.25 C0.9885825 6.65747485 1.21273364 8.20739631 3 11 C2.22269531 11.36738281 1.44539063 11.73476562 0.64453125 12.11328125 C-2.6992959 14.49890682 -3.18063631 16.28885841 -4.3125 20.1875 C-4.63863281 21.27417969 -4.96476562 22.36085937 -5.30078125 23.48046875 C-5.53152344 24.31191406 -5.76226562 25.14335937 -6 26 C-6.33 26 -6.66 26 -7 26 C-7 23.03 -7 20.06 -7 17 C-6.34 17 -5.68 17 -5 17 C-4.67 15.02 -4.34 13.04 -4 11 C-3.01 11 -2.02 11 -1 11 C-1.350625 10.401875 -1.70125 9.80375 -2.0625 9.1875 C-3 7 -3 7 -2 4 C-1.34870203 2.65909241 -0.68486725 1.32407669 0 0 Z " fill="#6394B3" transform="translate(374,168)"/>
<path d="M0 0 C0.28875 0.639375 0.5775 1.27875 0.875 1.9375 C1.82823451 4.15206079 1.82823451 4.15206079 4 5 C4.33 4.01 4.66 3.02 5 2 C5.66 2 6.32 2 7 2 C6.88541307 3.43836751 6.75790884 4.87570966 6.625 6.3125 C6.55539062 7.11300781 6.48578125 7.91351563 6.4140625 8.73828125 C6 11 6 11 4 14 C4 11.69 4 9.38 4 7 C3.34 7 2.68 7 2 7 C0.19682779 10.96697886 -0.49202991 14.6822542 -1 19 C-1.33 18.34 -1.66 17.68 -2 17 C-2.66 16.67 -3.32 16.34 -4 16 C-3.71125 15.21625 -3.4225 14.4325 -3.125 13.625 C-1.73239716 9.1377242 -0.85728019 4.614721 0 0 Z " fill="#4A81A7" transform="translate(342,168)"/>
<path d="M0 0 C1.90318884 2.85478326 2.4619099 4.41941308 3.125 7.6875 C3.29257812 8.49574219 3.46015625 9.30398437 3.6328125 10.13671875 C3.75398438 10.75160156 3.87515625 11.36648437 4 12 C2.68 12.33 1.36 12.66 0 13 C-0.33 15.31 -0.66 17.62 -1 20 C-3.12508244 16.81237635 -3.5020163 14.73487777 -4 11 C-3.34 11 -2.68 11 -2 11 C-2 9.35 -2 7.7 -2 6 C-1.01 6 -0.02 6 1 6 C0.67 4.02 0.34 2.04 0 0 Z " fill="#34749F" transform="translate(332,170)"/>
<path d="M0 0 C0.36 6.36 0.36 6.36 -1.125 9 C-3.93136238 10.49672661 -6.00159282 9.73294398 -9 9 C-9.33 7.35 -9.66 5.7 -10 4 C-9.34 4 -8.68 4 -8 4 C-7.67 4.66 -7.34 5.32 -7 6 C-6.01 5.01 -5.02 4.02 -4 3 C-4.33 2.34 -4.66 1.68 -5 1 C-2 0 -2 0 0 0 Z " fill="#4C84A8" transform="translate(258,49)"/>
<path d="M0 0 C0.66 0 1.32 0 2 0 C2 4.62 2 9.24 2 14 C0.68 14 -0.64 14 -2 14 C-2.98248524 9.9472484 -3.08159574 6.16138263 -3 2 C-2.01 2.495 -2.01 2.495 -1 3 C-0.67 2.01 -0.34 1.02 0 0 Z " fill="#05558D" transform="translate(108,185)"/>
<path d="M0 0 C2.97 0 5.94 0 9 0 C9.508783 1.55966218 10.00663469 3.12289241 10.5 4.6875 C10.7784375 5.55761719 11.056875 6.42773438 11.34375 7.32421875 C11.99850805 9.99391677 12.11831495 12.26396684 12 15 C10.5 13.6875 10.5 13.6875 9 12 C9 11.01 9 10.02 9 9 C8.01 9 7.02 9 6 9 C6.165 8.4225 6.33 7.845 6.5 7.25 C7.14462031 4.73335631 7.14462031 4.73335631 7 1 C5.68 1 4.36 1 3 1 C2.67 2.65 2.34 4.3 2 6 C0 3 0 3 0 0 Z " fill="#4D82A4" transform="translate(320,155)"/>
<path d="M0 0 C0.33 0 0.66 0 1 0 C1 1.65 1 3.3 1 5 C3.475 5.99 3.475 5.99 6 7 C5.67 8.98 5.34 10.96 5 13 C3.35 13 1.7 13 0 13 C0.66 11.68 1.32 10.36 2 9 C0.68 9 -0.64 9 -2 9 C-2.25 3.375 -2.25 3.375 0 0 Z " fill="#025691" transform="translate(359,186)"/>
<path d="M0 0 C2 1 2 1 3.1484375 3.87890625 C4.45551745 8.883411 3.97433125 13.82678375 3.625 18.9375 C3.56828125 19.90751953 3.5115625 20.87753906 3.453125 21.87695312 C3.31271847 24.25216354 3.16142622 26.62614124 3 29 C2.67 29 2.34 29 2 29 C1.96261719 27.78183594 1.92523438 26.56367188 1.88671875 25.30859375 C1.82101883 23.6848671 1.75457291 22.06117051 1.6875 20.4375 C1.66494141 19.63763672 1.64238281 18.83777344 1.61914062 18.01367188 C1.3770784 12.6222859 0.24328622 8.88537889 -2 4 C-1.1875 1.5625 -1.1875 1.5625 0 0 Z " fill="#135B8A" transform="translate(78,155)"/>
<path d="M0 0 C0.33 0 0.66 0 1 0 C1.0582253 3.08325358 1.09367134 6.16636505 1.125 9.25 C1.14175781 10.12269531 1.15851563 10.99539062 1.17578125 11.89453125 C1.18222656 12.73886719 1.18867188 13.58320313 1.1953125 14.453125 C1.20578613 15.22817383 1.21625977 16.00322266 1.22705078 16.80175781 C0.97326556 19.25883539 0.22444152 20.87311542 -1 23 C-1 22.34 -1 21.68 -1 21 C-1.66 20.67 -2.32 20.34 -3 20 C-2.34 19.34 -1.68 18.68 -1 18 C-0.88083734 15.11393841 -0.85989145 12.3184233 -0.9375 9.4375 C-0.99928165 6.62071435 -1.02057239 3.81841677 -1 1 C-0.67 0.67 -0.34 0.34 0 0 Z M-2 23 C-0.02 23 1.96 23 4 23 C3.34 24.32 2.68 25.64 2 27 C0.68 27 -0.64 27 -2 27 C-2 25.68 -2 24.36 -2 23 Z " fill="#3A769F" transform="translate(178,171)"/>
<path d="M0 0 C0.99 0.33 1.98 0.66 3 1 C3.05423638 2.91635217 3.09289963 4.83314925 3.125 6.75 C3.14820313 7.81734375 3.17140625 8.8846875 3.1953125 9.984375 C3.00487687 12.92470106 2.52670104 14.52361878 1 17 C0.67 15.02 0.34 13.04 0 11 C-0.99 11.495 -0.99 11.495 -2 12 C-2.21278058 7.53160785 -1.59138085 4.17737474 0 0 Z " fill="#3276A3" transform="translate(343,174)"/>
<path d="M0 0 C2.41674224 -0.02705308 4.8331794 -0.04686438 7.25 -0.0625 C7.93191406 -0.07087891 8.61382812 -0.07925781 9.31640625 -0.08789062 C12.69342554 -0.10428392 15.77291639 -0.05628768 19 1 C19 2.98 19 4.96 19 7 C17.68 6.67 16.36 6.34 15 6 C15.99 6 16.98 6 18 6 C18 5.01 18 4.02 18 3 C11.73 3 5.46 3 -1 3 C-0.67 2.01 -0.34 1.02 0 0 Z " fill="#226088" transform="translate(20,154)"/>
<path d="M0 0 C0.66 0 1.32 0 2 0 C2 0.66 2 1.32 2 2 C2.61875 2.28875 3.2375 2.5775 3.875 2.875 C6 4 6 4 8 6 C7.625 8.625 7.625 8.625 7 11 C4.12470182 9.71107323 1.94991702 8.50703617 0 6 C-0.75 3.375 -0.75 3.375 -1 1 C-0.67 0.67 -0.34 0.34 0 0 Z " fill="#095587" transform="translate(211,7)"/>
<path d="M0 0 C1.23556641 0.01740234 1.23556641 0.01740234 2.49609375 0.03515625 C3.32238281 0.04417969 4.14867187 0.05320313 5 0.0625 C5.63808594 0.07410156 6.27617187 0.08570313 6.93359375 0.09765625 C5.62109375 3.03515625 5.62109375 3.03515625 3.93359375 6.09765625 C2.94359375 6.42765625 1.95359375 6.75765625 0.93359375 7.09765625 C0.93359375 6.43765625 0.93359375 5.77765625 0.93359375 5.09765625 C0.27359375 5.09765625 -0.38640625 5.09765625 -1.06640625 5.09765625 C-1.39640625 6.08765625 -1.72640625 7.07765625 -2.06640625 8.09765625 C-3.06640625 7.09765625 -3.06640625 7.09765625 -3.19140625 4.09765625 C-3.02663038 0.14303546 -3.02663038 0.14303546 0 0 Z " fill="#216390" transform="translate(373.06640625,154.90234375)"/>
<path d="M0 0 C1 2 1 2 0.3125 4.3125 C-1.13611508 7.27871183 -2.77445221 9.56580711 -5 12 C-5.66 12 -6.32 12 -7 12 C-7.33 13.32 -7.66 14.64 -8 16 C-9.32 15.67 -10.64 15.34 -12 15 C-9.35132153 10.78173429 -6.58772752 7.4957345 -3 4 C-1.97186389 2.68824014 -0.95915568 1.3630107 0 0 Z " fill="#2B6E9B" transform="translate(124,159)"/>
<path d="M0 0 C0.99 0 1.98 0 3 0 C5.58476417 5.16952834 3.93847483 12.48646037 3 18 C2.34 18 1.68 18 1 18 C0.67 12.06 0.34 6.12 0 0 Z " fill="#025790" transform="translate(394,157)"/>
<path d="M0 0 C0.66 0 1.32 0 2 0 C2.33 6.27 2.66 12.54 3 19 C4.32 19 5.64 19 7 19 C7 15.37 7 11.74 7 8 C7.66 8.33 8.32 8.66 9 9 C8.67 12.96 8.34 16.92 8 21 C6.02 21 4.04 21 2 21 C0.41596476 19.41596476 0.78025065 17.7228362 0.68359375 15.52734375 C0.64169922 14.62822266 0.59980469 13.72910156 0.55664062 12.80273438 C0.51732422 11.85720703 0.47800781 10.91167969 0.4375 9.9375 C0.39431641 8.98810547 0.35113281 8.03871094 0.30664062 7.06054688 C0.20020724 4.70718647 0.09818992 2.35371646 0 0 Z " fill="#598BAC" transform="translate(103,180)"/>
<path d="M0 0 C4.66154042 1.49835228 5.86610751 4.88463591 8 9 C5 9 2 9 -1 9 C-1.33 8.01 -1.66 7.02 -2 6 C-1.34 6 -0.68 6 0 6 C0 4.02 0 2.04 0 0 Z " fill="#3273A0" transform="translate(118,175)"/>
<path d="M0 0 C3 2 3 2 3.6875 4.125 C3.790625 4.74375 3.89375 5.3625 4 6 C1.70691037 7.14654482 0.20090344 7.19729117 -2.3515625 7.31640625 C-3.20234375 7.35830078 -4.053125 7.40019531 -4.9296875 7.44335938 C-5.81914062 7.48267578 -6.70859375 7.52199219 -7.625 7.5625 C-8.97078125 7.62727539 -8.97078125 7.62727539 -10.34375 7.69335938 C-12.56234283 7.79956861 -14.7810488 7.90161194 -17 8 C-17 7.34 -17 6.68 -17 6 C-10.565 5.505 -10.565 5.505 -4 5 C-4 4.34 -4 3.68 -4 3 C-3.01 2.67 -2.02 2.34 -1 2 C-0.67 1.34 -0.34 0.68 0 0 Z " fill="#2C72A1" transform="translate(260,155)"/>
<path d="M0 0 C2.31 1.98 4.62 3.96 7 6 C5.02 6.99 5.02 6.99 3 8 C2.34 8.66 1.68 9.32 1 10 C-0.98 8.02 -2.96 6.04 -5 4 C-4.67 3.34 -4.34 2.68 -4 2 C-2.515 2.99 -2.515 2.99 -1 4 C-0.67 2.68 -0.34 1.36 0 0 Z " fill="#4681A9" transform="translate(219,14)"/>
<path d="M0 0 C1.32 0.66 2.64 1.32 4 2 C4 2.66 4 3.32 4 4 C4.66 4 5.32 4 6 4 C6.33 5.65 6.66 7.3 7 9 C5.02 9 3.04 9 1 9 C-0.61949011 6.42786866 -1.04408751 5.32330841 -0.625 2.25 C-0.41875 1.5075 -0.2125 0.765 0 0 Z " fill="#07558B" transform="translate(129,190)"/>
<path d="M0 0 C2.97 0 5.94 0 9 0 C9 0.99 9 1.98 9 3 C7.35 3.33 5.7 3.66 4 4 C3.67 5.32 3.34 6.64 3 8 C2.01 7.67 1.02 7.34 0 7 C-1.17755913 4.05610218 -1.03348696 3.10046087 0 0 Z " fill="#21618E" transform="translate(345,155)"/>
<path d="M0 0 C5.75 1.75 5.75 1.75 8 4 C8 5.32 8 6.64 8 8 C5.03 7.01 2.06 6.02 -1 5 C-0.67 3.35 -0.34 1.7 0 0 Z " fill="#266B9A" transform="translate(222,20)"/>
<path d="M0 0 C0.33 0 0.66 0 1 0 C1 1.98 1 3.96 1 6 C1.66 6 2.32 6 3 6 C3 7.65 3 9.3 3 11 C2.34 11 1.68 11 1 11 C0.67 11.99 0.34 12.98 0 14 C-2.46751239 10.29873141 -2.30721156 8.37776468 -2 4 C-1 1.5625 -1 1.5625 0 0 Z " fill="#115D91" transform="translate(366,174)"/>
<path d="M0 0 C2 2 2 2 2.125 5.625 C2.08375 6.73875 2.0425 7.8525 2 9 C-3.75 8.25 -3.75 8.25 -6 6 C-4.02 4.02 -2.04 2.04 0 0 Z " fill="#246897" transform="translate(328,172)"/>
<path d="M0 0 C1.32 0 2.64 0 4 0 C4.33 0.66 4.66 1.32 5 2 C11.93 2.33 18.86 2.66 26 3 C26.33 2.34 26.66 1.68 27 1 C28.32 1.66 29.64 2.32 31 3 C30.01 3 29.02 3 28 3 C27.67 3.66 27.34 4.32 27 5 C23.06191772 4.8902743 19.12480411 4.75960869 15.1875 4.625 C14.06794922 4.5940625 12.94839844 4.563125 11.79492188 4.53125 C10.72177734 4.49257813 9.64863281 4.45390625 8.54296875 4.4140625 C7.55321045 4.3826416 6.56345215 4.3512207 5.54370117 4.31884766 C3 4 3 4 0 2 C0 1.34 0 0.68 0 0 Z " fill="#558BB1" transform="translate(127,58)"/>
<path d="M0 0 C1.98 0.495 1.98 0.495 4 1 C3.34 2.32 2.68 3.64 2 5 C5.18490007 5.2773501 5.18490007 5.2773501 8 3 C7.67 4.65 7.34 6.3 7 8 C4.125 8.625 4.125 8.625 1 9 C0.34 8.34 -0.32 7.68 -1 7 C-0.625 3.375 -0.625 3.375 0 0 Z " fill="#4F86AA" transform="translate(153,50)"/>
<path d="M0 0 C5.94 0 11.88 0 18 0 C18 0.99 18 1.98 18 3 C12.06 3 6.12 3 0 3 C0 2.01 0 1.02 0 0 Z " fill="#396E95" transform="translate(151,64)"/>
<path d="M0 0 C0.89847656 0.15339844 1.79695312 0.30679688 2.72265625 0.46484375 C8.26420344 1.25649335 13.84974739 1.36021341 19.4375 1.5625 C20.55060547 1.60568359 21.66371094 1.64886719 22.81054688 1.69335938 C25.54025844 1.79879888 28.27005143 1.90092029 31 2 C31 2.33 31 2.66 31 3 C26.43786457 3.19718727 21.87528686 3.3810637 17.3125 3.5625 C16.01892578 3.61857422 14.72535156 3.67464844 13.39257812 3.73242188 C11.52182617 3.80493164 11.52182617 3.80493164 9.61328125 3.87890625 C8.46641846 3.9260376 7.31955566 3.97316895 6.13793945 4.02172852 C3.26158808 4.00181135 0.78618306 3.6777202 -2 3 C-1.34 2.67 -0.68 2.34 0 2 C0 1.34 0 0.68 0 0 Z " fill="#5789AD" transform="translate(249,59)"/>
<path d="M0 0 C0.33 0.99 0.66 1.98 1 3 C-1.31 3.33 -3.62 3.66 -6 4 C-5.67 4.99 -5.34 5.98 -5 7 C-6.65 7.66 -8.3 8.32 -10 9 C-9.40425532 3.63829787 -9.40425532 3.63829787 -7.8125 1.125 C-5.19985125 -0.49664405 -3.00479298 -0.20031953 0 0 Z " fill="#47799B" transform="translate(201,2)"/>
<path d="M0 0 C3.3 0 6.6 0 10 0 C10 1.98 10 3.96 10 6 C5.05 6 0.1 6 -5 6 C-5 5.67 -5 5.34 -5 5 C0.445 4.505 0.445 4.505 6 4 C5.67 3.34 5.34 2.68 5 2 C2.47266765 1.34444881 2.47266765 1.34444881 0 1 C0 0.67 0 0.34 0 0 Z " fill="#095387" transform="translate(301,155)"/>
<path d="M0 0 C0.66 0 1.32 0 2 0 C2.433125 1.093125 2.86625 2.18625 3.3125 3.3125 C4.50873916 6.13790298 5.70733935 7.92568798 8 10 C8 10.66 8 11.32 8 12 C9.65 12 11.3 12 13 12 C13.33 12.66 13.66 13.32 14 14 C9.7476422 13.74986131 7.52435219 13.43113402 4.1875 10.6875 C0.99051274 6.75977279 0 5.12997664 0 0 Z " fill="#5186AA" transform="translate(140,119)"/>
<path d="M0 0 C2.62901288 1.52206009 4.84365964 2.84365964 7 5 C7.1953125 8.0390625 7.1953125 8.0390625 7.125 11.625 C7.10695313 12.81351563 7.08890625 14.00203125 7.0703125 15.2265625 C7.04710938 16.14179688 7.02390625 17.05703125 7 18 C6.67 18 6.34 18 6 18 C5.96261719 17.37351563 5.92523438 16.74703125 5.88671875 16.1015625 C5.82097656 15.28429687 5.75523438 14.46703125 5.6875 13.625 C5.60048828 12.40683594 5.60048828 12.40683594 5.51171875 11.1640625 C5.17009472 8.62078662 5.17009472 8.62078662 2 7 C0.8125 3.375 0.8125 3.375 0 0 Z " fill="#5188AE" transform="translate(80,157)"/>
<path d="M0 0 C0.33 0.99 0.66 1.98 1 3 C0.01 4.485 0.01 4.485 -1 6 C-1.45601261 8.50896686 -1.45601261 8.50896686 -1.625 11.1875 C-1.69976562 12.08855469 -1.77453125 12.98960937 -1.8515625 13.91796875 C-1.90054688 14.60503906 -1.94953125 15.29210937 -2 16 C-2.66 16 -3.32 16 -4 16 C-4.10841951 14.08458862 -4.18578079 12.16740227 -4.25 10.25 C-4.29640625 9.18265625 -4.3428125 8.1153125 -4.390625 7.015625 C-3.91735478 3.36197888 -2.80844958 2.27771895 0 0 Z " fill="#588EAF" transform="translate(155,159)"/>
<path d="M0 0 C0.66 0.33 1.32 0.66 2 1 C1.67 1.99 1.34 2.98 1 4 C2.37492804 7.1668838 2.37492804 7.1668838 4 10 C-1.75 10.125 -1.75 10.125 -4 9 C-4 7.68 -4 6.36 -4 5 C-3.34 5 -2.68 5 -2 5 C-1.34 3.35 -0.68 1.7 0 0 Z " fill="#5287AB" transform="translate(210,6)"/>
<path d="M0 0 C3.375 -0.1875 3.375 -0.1875 7 0 C9.29013653 3.4352048 9.17842973 4.985331 9 9 C6.5625 7.8125 6.5625 7.8125 4 6 C3.1875 3.3125 3.1875 3.3125 3 1 C2.01 0.67 1.02 0.34 0 0 Z " fill="#4C83A6" transform="translate(209,3)"/>
<path d="M0 0 C0.66 0 1.32 0 2 0 C2.0810206 2.10353495 2.13919907 4.20795952 2.1875 6.3125 C2.22230469 7.48425781 2.25710938 8.65601562 2.29296875 9.86328125 C2 13 2 13 -1 16 C-0.67 10.72 -0.34 5.44 0 0 Z " fill="#3976A1" transform="translate(259,92)"/>
<path d="M0 0 C0.66 0 1.32 0 2 0 C2.53067341 2.10170656 3.04922857 4.20647598 3.5625 6.3125 C3.85253906 7.48425781 4.14257812 8.65601563 4.44140625 9.86328125 C5 13 5 13 4 16 C4 15.34 4 14.68 4 14 C3.34 14 2.68 14 2 14 C-0.29612756 4.58997722 -0.29612756 4.58997722 0 0 Z " fill="#5F8EAE" transform="translate(353,158)"/>
<path d="M0 0 C1.65 0 3.3 0 5 0 C4.67 2.31 4.34 4.62 4 7 C2.35 7 0.7 7 -1 7 C-0.67 4.69 -0.34 2.38 0 0 Z " fill="#246795" transform="translate(202,6)"/>
<path d="M0 0 C0.66 0 1.32 0 2 0 C1.67 0.99 1.34 1.98 1 3 C0.34 3 -0.32 3 -1 3 C-1 10.92 -1 18.84 -1 27 C-1.33 27 -1.66 27 -2 27 C-2.05784708 22.87505849 -2.09354407 18.75022056 -2.125 14.625 C-2.14175781 13.449375 -2.15851563 12.27375 -2.17578125 11.0625 C-2.18222656 9.94101563 -2.18867188 8.81953125 -2.1953125 7.6640625 C-2.20578613 6.62717285 -2.21625977 5.5902832 -2.22705078 4.52197266 C-2 2 -2 2 0 0 Z " fill="#115483" transform="translate(159,162)"/>
<path d="M0 0 C1.65 0.99 3.3 1.98 5 3 C5.33 2.01 5.66 1.02 6 0 C6.33 0.99 6.66 1.98 7 3 C4.03 5.475 4.03 5.475 1 8 C1 7.01 1 6.02 1 5 C-0.32 4.67 -1.64 4.34 -3 4 C-2.01 2.68 -1.02 1.36 0 0 Z " fill="#3C789D" transform="translate(175,29)"/>
<path d="M0 0 C2.52259061 1.97420135 2.9929808 2.96745642 3.6875 6.1875 C3.790625 7.115625 3.89375 8.04375 4 9 C3.01 9 2.02 9 1 9 C-1.125 3.375 -1.125 3.375 0 0 Z M-3 1 C-2.34 2.32 -1.68 3.64 -1 5 C-1.66 5.66 -2.32 6.32 -3 7 C-3 5.02 -3 3.04 -3 1 Z " fill="#07548A" transform="translate(329,167)"/>
<path d="M0 0 C1.32 0 2.64 0 4 0 C5.125 6.75 5.125 6.75 4 9 C3.34 9 2.68 9 2 9 C1 7 0 5 -1 3 C-0.67 2.01 -0.34 1.02 0 0 Z " fill="#04568E" transform="translate(323,156)"/>
<path d="M0 0 C0.99 0 1.98 0 3 0 C5 3 5 3 5 5 C4.01 5.66 3.02 6.32 2 7 C1.26656572 10.06556598 1.26656572 10.06556598 1 13 C0.67 13 0.34 13 0 13 C0 8.71 0 4.42 0 0 Z " fill="#07568C" transform="translate(54,162)"/>
<path d="M0 0 C0.33 0 0.66 0 1 0 C1.08728882 3.24983 1.14048658 6.4993575 1.1875 9.75 C1.22520508 11.13058594 1.22520508 11.13058594 1.26367188 12.5390625 C1.27333984 13.42851562 1.28300781 14.31796875 1.29296875 15.234375 C1.3086792 16.05131836 1.32438965 16.86826172 1.34057617 17.70996094 C0.91815669 20.55031558 -0.0439134 21.92769552 -2 24 C-2.66 24 -3.32 24 -4 24 C-2.125 20.125 -2.125 20.125 -1 19 C-0.84379445 17.58672053 -0.74943827 16.1664541 -0.68359375 14.74609375 C-0.64169922 13.89208984 -0.59980469 13.03808594 -0.55664062 12.15820312 C-0.51732422 11.26037109 -0.47800781 10.36253906 -0.4375 9.4375 C-0.39431641 8.53580078 -0.35113281 7.63410156 -0.30664062 6.70507812 C-0.20021858 4.47021515 -0.09820012 2.23523692 0 0 Z " fill="#6F9CBB" transform="translate(236,155)"/>
<path d="M0 0 C1.19109375 -0.00386719 1.19109375 -0.00386719 2.40625 -0.0078125 C4.5 0.125 4.5 0.125 6.5 1.125 C5.84 2.445 5.18 3.765 4.5 5.125 C4.17 4.465 3.84 3.805 3.5 3.125 C1.67323569 2.27181461 1.67323569 2.27181461 -0.5 2.125 C-1.84882408 2.75974075 -3.1846659 3.42348848 -4.5 4.125 C-5.16 3.795 -5.82 3.465 -6.5 3.125 C-6.5 2.465 -6.5 1.805 -6.5 1.125 C-4.13386544 -0.05806728 -2.63219264 -0.00854608 0 0 Z " fill="#437DA1" transform="translate(255.5,72.875)"/>
<path d="M0 0 C0.33 0 0.66 0 1 0 C1.33 2.31 1.66 4.62 2 7 C2.33 6.01 2.66 5.02 3 4 C3.66 4 4.32 4 5 4 C4.38461538 9.53846154 4.38461538 9.53846154 2.4375 11.875 C1.963125 12.24625 1.48875 12.6175 1 13 C0 12 0 12 -0.09765625 9.27734375 C-0.08605469 8.17519531 -0.07445312 7.07304687 -0.0625 5.9375 C-0.05347656 4.83277344 -0.04445312 3.72804687 -0.03515625 2.58984375 C-0.02355469 1.73519531 -0.01195312 0.88054687 0 0 Z " fill="#4886B3" transform="translate(53,181)"/>
<path d="M0 0 C2.19050021 0.09017996 4.378466 0.24666208 6.5625 0.4375 C7.76003906 0.53933594 8.95757812 0.64117187 10.19140625 0.74609375 C11.11824219 0.82988281 12.04507812 0.91367188 13 1 C13 1.99 13 2.98 13 4 C12.01 4 11.02 4 10 4 C10 3.34 10 2.68 10 2 C8.9275 2.20625 7.855 2.4125 6.75 2.625 C3.12380904 2.9876191 1.91708924 2.98362069 -1 1 C-0.67 0.67 -0.34 0.34 0 0 Z " fill="#57809D" transform="translate(265,64)"/>
<path d="M0 0 C0.99 0 1.98 0 3 0 C3 1.32 3 2.64 3 4 C2.34 4 1.68 4 1 4 C1.2784375 4.928125 1.2784375 4.928125 1.5625 5.875 C2 8 2 8 1 10 C0.01 9.67 -0.98 9.34 -2 9 C-1.34 6.03 -0.68 3.06 0 0 Z " fill="#045690" transform="translate(117,171)"/>
<path d="M0 0 C-1.98 0.99 -1.98 0.99 -4 2 C-4 3.32 -4 4.64 -4 6 C-5.32 6 -6.64 6 -8 6 C-7.39816251 3.97954558 -6.72693904 1.97888961 -6 0 C-3.50907189 -1.24546405 -2.58919267 -0.7767578 0 0 Z " fill="#0E5A8E" transform="translate(132,157)"/>
<path d="M0 0 C2.475 0.495 2.475 0.495 5 1 C5.33 5.62 5.66 10.24 6 15 C5.34 15 4.68 15 4 15 C3.67 11.04 3.34 7.08 3 3 C2.01 3 1.02 3 0 3 C0 2.01 0 1.02 0 0 Z " fill="#477394" transform="translate(106,154)"/>
<path d="M0 0 C6.93 0 13.86 0 21 0 C21 0.66 21 1.32 21 2 C15.06 1.67 9.12 1.34 3 1 C3 1.66 3 2.32 3 3 C2.01 2.67 1.02 2.34 0 2 C0 1.34 0 0.68 0 0 Z " fill="#10527C" transform="translate(257,47)"/>
<path d="M0 0 C0.99 0.495 0.99 0.495 2 1 C1.01 1.495 1.01 1.495 0 2 C0 1.34 0 0.68 0 0 Z M-2 1 C-0.5 2.375 -0.5 2.375 1 4 C1 4.66 1 5.32 1 6 C1.66 6.33 2.32 6.66 3 7 C-0.01031744 7.93423645 -0.86650268 8.04449911 -4 7 C-3.34 5.02 -2.68 3.04 -2 1 Z " fill="#0B5D97" transform="translate(181,187)"/>
<path d="M0 0 C1.02104551 0.97850195 2.0206121 1.97980427 3 3 C3 3.33 3 3.66 3 4 C1.35 4 -0.3 4 -2 4 C-1.67 5.32 -1.34 6.64 -1 8 C-5.875 3.25 -5.875 3.25 -7 1 C-2.25 1.875 -2.25 1.875 0 3 C0 2.01 0 1.02 0 0 Z " fill="#5289AE" transform="translate(230,25)"/>
<path d="M0 0 C0.99 0.99 1.98 1.98 3 3 C2.51917969 3.36738281 2.03835937 3.73476562 1.54296875 4.11328125 C-0.61204917 6.74840443 -0.50672346 8.82505636 -0.6875 12.1875 C-0.75324219 13.27417969 -0.81898438 14.36085937 -0.88671875 15.48046875 C-0.92410156 16.31191406 -0.96148437 17.14335937 -1 18 C-1.33 18 -1.66 18 -2 18 C-2 13.38 -2 8.76 -2 4 C-1.34 4 -0.68 4 0 4 C0 2.68 0 1.36 0 0 Z " fill="#5C89A6" transform="translate(186,175)"/>
<path d="M0 0 C0.66 0 1.32 0 2 0 C2 2.64 2 5.28 2 8 C0.35 7.67 -1.3 7.34 -3 7 C-2.690625 6.401875 -2.38125 5.80375 -2.0625 5.1875 C-0.89790296 2.91043228 -0.89790296 2.91043228 0 0 Z " fill="#497CA2" transform="translate(283,172)"/>
<path d="M0 0 C0 3.74161103 -0.51338171 7.28953557 -1 11 C-0.34 11.33 0.32 11.66 1 12 C-0.98 12 -2.96 12 -5 12 C-4.71125 11.484375 -4.4225 10.96875 -4.125 10.4375 C-2.71434409 7.38107885 -1.91545726 4.23461565 -1 1 C-0.67 0.67 -0.34 0.34 0 0 Z " fill="#4B88B1" transform="translate(164,49)"/>
<path d="M0 0 C0.99 0 1.98 0 3 0 C3.33 0.66 3.66 1.32 4 2 C6.02463255 2.65213292 6.02463255 2.65213292 8 3 C8 3.66 8 4.32 8 5 C5.36 5 2.72 5 0 5 C0 3.35 0 1.7 0 0 Z " fill="#0A5489" transform="translate(145,56)"/>
<path d="M0 0 C0.99 0.33 1.98 0.66 3 1 C2.67 3.31 2.34 5.62 2 8 C2.66 8.33 3.32 8.66 4 9 C3.34 10.32 2.68 11.64 2 13 C1.66127487 11.58461283 1.32925376 10.16762037 1 8.75 C0.814375 7.96109375 0.62875 7.1721875 0.4375 6.359375 C0 4 0 4 0 0 Z " fill="#4A84A9" transform="translate(352,177)"/>
<path d="M0 0 C1.24546405 2.49092811 0.7767578 3.41080733 0 6 C-1.32 6 -2.64 6 -4 6 C-4 5.34 -4 4.68 -4 4 C-5.65 4.66 -7.3 5.32 -9 6 C-9 5.01 -9 4.02 -9 3 C-6.36 3 -3.72 3 -1 3 C-0.67 2.01 -0.34 1.02 0 0 Z " fill="#4A7FA1" transform="translate(161,44)"/>
<path d="M0 0 C0.99 0.33 1.98 0.66 3 1 C3 3.64 3 6.28 3 9 C2.34 8.01 1.68 7.02 1 6 C0.01 6.66 -0.98 7.32 -2 8 C-1.34 5.36 -0.68 2.72 0 0 Z " fill="#05568E" transform="translate(343,174)"/>
<path d="M0 0 C0.99 0.33 1.98 0.66 3 1 C2.67 2.65 2.34 4.3 2 6 C0.68 5.67 -0.64 5.34 -2 5 C-2 3.68 -2 2.36 -2 1 C-1.34 0.67 -0.68 0.34 0 0 Z " fill="#326F99" transform="translate(198,6)"/>
<path d="M0 0 C0.66 0.33 1.32 0.66 2 1 C2 1.66 2 2.32 2 3 C2.66 3 3.32 3 4 3 C4.33 4.32 4.66 5.64 5 7 C2.03 6.505 2.03 6.505 -1 6 C-0.67 4.02 -0.34 2.04 0 0 Z " fill="#3B769C" transform="translate(131,191)"/>
<path d="M0 0 C2.31282587 3.46923881 2.42478586 4.92205575 2 9 C1.01 9.99 0.02 10.98 -1 12 C-0.67 8.04 -0.34 4.08 0 0 Z " fill="#407CA6" transform="translate(358,177)"/>
<path d="M0 0 C0.33 0.66 0.66 1.32 1 2 C1.99 2.33 2.98 2.66 4 3 C4 3.66 4 4.32 4 5 C5.65 5 7.3 5 9 5 C9 5.66 9 6.32 9 7 C5.625 6.6875 5.625 6.6875 2 6 C0 3 0 3 0 0 Z " fill="#5F8FAD" transform="translate(332,194)"/>
<path d="M0 0 C0.33 0.66 0.66 1.32 1 2 C1.99 2 2.98 2 4 2 C4 2.66 4 3.32 4 4 C1 6 1 6 -2 6 C-1.125 1.125 -1.125 1.125 0 0 Z " fill="#005891" transform="translate(287,192)"/>
<path d="M0 0 C0.99 0 1.98 0 3 0 C3 2.64 3 5.28 3 8 C2.01 8 1.02 8 0 8 C0 5.36 0 2.72 0 0 Z " fill="#015794" transform="translate(22,164)"/>
<path d="M0 0 C0.99 0 1.98 0 3 0 C3.33 1.65 3.66 3.3 4 5 C2.68 5.99 1.36 6.98 0 8 C0.33 6.02 0.66 4.04 1 2 C0.34 1.67 -0.32 1.34 -1 1 C-0.67 0.67 -0.34 0.34 0 0 Z " fill="#1A6190" transform="translate(184,20)"/>
<path d="M0 0 C0.99 0 1.98 0 3 0 C3.33 0.99 3.66 1.98 4 3 C6.31 3 8.62 3 11 3 C11 3.99 11 4.98 11 6 C5.62694301 5.7357513 5.62694301 5.7357513 3 5 C1 2.4375 1 2.4375 0 0 Z " fill="#6693B2" transform="translate(126,195)"/>
<path d="M0 0 C2.97 0.495 2.97 0.495 6 1 C5.67 2.98 5.34 4.96 5 7 C3.29115995 5.37660195 1.62553283 3.70680947 0 2 C0 1.34 0 0.68 0 0 Z " fill="#4A88B3" transform="translate(119,185)"/>
<path d="M0 0 C0.99 0 1.98 0 3 0 C3.33 1.65 3.66 3.3 4 5 C3.01 5.495 3.01 5.495 2 6 C1.01 5.34 0.02 4.68 -1 4 C-0.67 2.68 -0.34 1.36 0 0 Z " fill="#1A6398" transform="translate(235,176)"/>
<path d="M0 0 C0.99 0.33 1.98 0.66 3 1 C3.33 2.32 3.66 3.64 4 5 C-0.29 4.34 -4.58 3.68 -9 3 C-9 2.67 -9 2.34 -9 2 C-4.545 1.505 -4.545 1.505 0 1 C0 0.67 0 0.34 0 0 Z " fill="#538EB2" transform="translate(74,159)"/>
<path d="M0 0 C3.3 0 6.6 0 10 0 C10 1.98 10 3.96 10 6 C9.34 5.67 8.68 5.34 8 5 C8 4.34 8 3.68 8 3 C5.36 2.34 2.72 1.68 0 1 C0 0.67 0 0.34 0 0 Z " fill="#175172" transform="translate(301,155)"/>
<path d="M0 0 C-1.32 1.65 -2.64 3.3 -4 5 C-4.33 4.01 -4.66 3.02 -5 2 C-6.32 2 -7.64 2 -9 2 C-9 1.34 -9 0.68 -9 0 C-5.62182575 -0.84454356 -3.32534757 -1.10844919 0 0 Z " fill="#56809D" transform="translate(136,155)"/>
<path d="M0 0 C0.5775 0.45375 1.155 0.9075 1.75 1.375 C3.7800333 2.84113516 5.73539843 3.94857784 8 5 C2.375 6.125 2.375 6.125 -1 5 C-0.67 3.35 -0.34 1.7 0 0 Z " fill="#5084A9" transform="translate(199,113)"/>
<path d="M0 0 C1.32728846 2.65457692 1.69347955 5.0574037 2 8 C1.34 8.66 0.68 9.32 0 10 C0 9.34 0 8.68 0 8 C-0.66 7.67 -1.32 7.34 -2 7 C-1.67 6.34 -1.34 5.68 -1 5 C-1.66 4.67 -2.32 4.34 -3 4 C-2.01 2.68 -1.02 1.36 0 0 Z " fill="#3B7AA4" transform="translate(188,15)"/>
<path d="M0 0 C0.33 0 0.66 0 1 0 C1.33 1.98 1.66 3.96 2 6 C0.35 6.66 -1.3 7.32 -3 8 C-2.25 2.25 -2.25 2.25 0 0 Z " fill="#5B8EAE" transform="translate(194,3)"/>
<path d="M0 0 C0.66 0 1.32 0 2 0 C1.34 2.31 0.68 4.62 0 7 C-1.32 6.67 -2.64 6.34 -4 6 C-2.7260411 3.96166576 -1.38938077 1.96147874 0 0 Z " fill="#4A85AB" transform="translate(116,168)"/>
<path d="M0 0 C1.22589844 0.01353516 1.22589844 0.01353516 2.4765625 0.02734375 C3.41628906 0.04474609 3.41628906 0.04474609 4.375 0.0625 C0.58344146 2.00973048 -2.32534426 3.0625 -6.625 3.0625 C-6.625 2.4025 -6.625 1.7425 -6.625 1.0625 C-4.21954362 -0.14022819 -2.67503047 -0.03821472 0 0 Z " fill="#3C779B" transform="translate(205.625,72.9375)"/>
<path d="M0 0 C2.97 0.495 2.97 0.495 6 1 C5.67 2.32 5.34 3.64 5 5 C3.0625 4.1875 3.0625 4.1875 1 3 C0.67 2.01 0.34 1.02 0 0 Z " fill="#09568D" transform="translate(235,36)"/>
<path d="M0 0 C3.16115776 1.36983503 3.9927092 1.9890638 6 5 C5.34 5.66 4.68 6.32 4 7 C4 6.01 4 5.02 4 4 C2.35 3.67 0.7 3.34 -1 3 C-0.67 2.01 -0.34 1.02 0 0 Z " fill="#115F96" transform="translate(213,9)"/>
<path d="M0 0 C0.99 0 1.98 0 3 0 C3 2.97 3 5.94 3 9 C0.87491756 5.81237635 0.4979837 3.73487777 0 0 Z " fill="#5590B1" transform="translate(328,181)"/>
<path d="M0 0 C0.66 0.33 1.32 0.66 2 1 C1.625 3.9375 1.625 3.9375 1 7 C0.01 7.495 0.01 7.495 -1 8 C-1.04241723 5.66705225 -1.04092937 3.33297433 -1 1 C-0.67 0.67 -0.34 0.34 0 0 Z " fill="#4682A3" transform="translate(268,119)"/>
<path d="M0 0 C0.33 1.32 0.66 2.64 1 4 C-2 6 -2 6 -4.1875 5.625 C-4.785625 5.41875 -5.38375 5.2125 -6 5 C-4.02 3.35 -2.04 1.7 0 0 Z " fill="#6FA0BF" transform="translate(160,53)"/>
<path d="M0 0 C1.65 0.33 3.3 0.66 5 1 C3.8125 2.5 3.8125 2.5 2 4 C-0.6875 4.1875 -0.6875 4.1875 -3 4 C-2.67 3.34 -2.34 2.68 -2 2 C-1.34 2 -0.68 2 0 2 C0 1.34 0 0.68 0 0 Z " fill="#598EB4" transform="translate(199,12)"/>
<path d="M0 0 C1.32 0 2.64 0 4 0 C3.25 1.9375 3.25 1.9375 2 4 C-0.125 4.75 -0.125 4.75 -2 5 C-2 4.34 -2 3.68 -2 3 C-1.34 3 -0.68 3 0 3 C0 2.01 0 1.02 0 0 Z " fill="#2A6B91" transform="translate(262,127)"/>
<path d="M0 0 C0 2.31 0 4.62 0 7 C-1.65 5.35 -3.3 3.7 -5 2 C-2 0 -2 0 0 0 Z " fill="#81AFCE" transform="translate(258,49)"/>
<path d="" fill="#FFFFFF" transform="translate(0,0)"/>
<path d="" fill="#FFFFFF" transform="translate(0,0)"/>
<path d="" fill="#FFFFFF" transform="translate(0,0)"/>
</svg>
